<svg id="Capa_1" data-name="Capa 1" xmlns="http://www.w3.org/2000/svg" xmlns:xlink="http://www.w3.org/1999/xlink" viewBox="0 0 105 105"><defs><linearGradient id="Degradado_sin_nombre_13" y1="52.5" x2="105" y2="52.5" gradientUnits="userSpaceOnUse"><stop offset="0" stop-color="#ff5858"/><stop offset="1" stop-color="#db36a4"/></linearGradient><linearGradient id="Degradado_sin_nombre_13-2" x1="26.06" y1="53.83" x2="78.94" y2="53.83" xlink:href="#Degradado_sin_nombre_13"/><linearGradient id="Degradado_sin_nombre_13-3" x1="45.29" y1="53.83" x2="59.71" y2="53.83" xlink:href="#Degradado_sin_nombre_13"/></defs><title>empty</title><path id="path4176" d="M52.5,2.5a50,50,0,1,1-50,50,50,50,0,0,1,50-50Z" style="fill:none;stroke-miterlimit:10;stroke-width:5px;stroke:url(#Degradado_sin_nombre_13)"/><path d="M67.57,27.39H37.42A11.4,11.4,0,0,0,26.06,38.76V68.91A11.4,11.4,0,0,0,37.42,80.28H67.57A11.4,11.4,0,0,0,78.94,68.91V38.76A11.4,11.4,0,0,0,67.57,27.39ZM52.29,68.07A14.28,14.28,0,1,1,66.57,53.8v0A14.27,14.27,0,0,1,52.29,68.07Z" style="fill:url(#Degradado_sin_nombre_13-2)"/><circle cx="52.5" cy="53.83" r="7.21" style="fill:url(#Degradado_sin_nombre_13-3)"/></svg>