<?xml version="1.0" encoding="UTF-8" standalone="no"?><!-- Generator: Gravit.io --><svg xmlns="http://www.w3.org/2000/svg" xmlns:xlink="http://www.w3.org/1999/xlink" style="isolation:isolate" viewBox="573.5 144.5 81 73.78" width="81pt" height="73.78pt"><g><g opacity="0.3"><radialGradient id="_rgradient_1" fx="0.5000000571581289" fy="0.4999997892385313" cx="0.5000000571581289" cy="0.4999997892385313" r="1" gradientTransform="matrix(48.64,0,0,10.24,589.68,208.04)" gradientUnits="userSpaceOnUse"><stop offset="0%" stop-opacity="1" style="stop-color:rgb(0,0,0)"/><stop offset="100%" stop-opacity="0" style="stop-color:rgb(0,0,0)"/></radialGradient><path d=" M 638.32 213.16 C 638.32 215.988 627.432 218.28 614 218.28 C 600.568 218.28 589.68 215.988 589.68 213.16 C 589.68 210.332 600.568 208.04 614 208.04 C 627.432 208.04 638.32 210.332 638.32 213.16 L 638.32 213.16 Z " fill="url(#_rgradient_1)"/></g><linearGradient id="_lgradient_11" x1="0.6540557552489479" y1="0.09698097330986233" x2="0.6540557552489478" y2="0.987548613064857" gradientTransform="matrix(32.641,0,0,13.441,597.679,201.319)" gradientUnits="userSpaceOnUse"><stop offset="0%" stop-opacity="1" style="stop-color:rgb(39,52,69)"/><stop offset="35.046947%" stop-opacity="1" style="stop-color:rgb(102,120,133)"/><stop offset="49.417919%" stop-opacity="1" style="stop-color:rgb(149,163,171)"/><stop offset="58.907253000000004%" stop-opacity="1" style="stop-color:rgb(102,120,133)"/><stop offset="100%" stop-opacity="1" style="stop-color:rgb(72,90,108)"/></linearGradient><path d=" M 603.44 201.319 C 603.44 201.319 603.694 208.256 602.48 209.873 C 601.265 211.49 598.848 212.52 598.848 212.52 C 597.296 212.69 597.284 214.761 598.848 214.761 L 629.152 214.761 C 630.716 214.761 630.704 212.688 629.152 212.52 C 629.152 212.52 626.735 211.49 625.52 209.873 C 624.306 208.256 624.56 201.319 624.56 201.319 L 603.451 201.319 L 603.44 201.319 L 603.44 201.319 Z " fill="url(#_lgradient_11)"/><g opacity="0.4"><mask id="_mask_kMjNzvqCeNjXyMbUtcvHbdiyMUMj8BeQ" x="-200%" y="-200%" width="400%" height="400%"><rect x="-200%" y="-200%" width="400%" height="400%" style="fill:white;"/><path d=" M 603.44 201.319 C 603.44 201.319 603.694 208.256 602.48 209.873 C 601.265 211.49 598.848 212.52 598.848 212.52 C 597.296 212.69 597.284 214.761 598.848 214.761 L 629.152 214.761 C 630.716 214.761 630.704 212.688 629.152 212.52 C 629.152 212.52 626.735 211.49 625.52 209.873 C 624.306 208.256 624.56 201.319 624.56 201.319 L 603.451 201.319 L 603.44 201.319 L 603.44 201.319 Z " fill="black" stroke="none"/></mask><path d=" M 603.44 201.319 C 603.44 201.319 603.694 208.256 602.48 209.873 C 601.265 211.49 598.848 212.52 598.848 212.52 C 597.296 212.69 597.284 214.761 598.848 214.761 L 629.152 214.761 C 630.716 214.761 630.704 212.688 629.152 212.52 C 629.152 212.52 626.735 211.49 625.52 209.873 C 624.306 208.256 624.56 201.319 624.56 201.319 L 603.451 201.319 L 603.44 201.319 L 603.44 201.319 Z " fill="none" mask="url(#_mask_kMjNzvqCeNjXyMbUtcvHbdiyMUMj8BeQ)" vector-effect="non-scaling-stroke" stroke-width="2" stroke="rgb(0,0,0)" stroke-linejoin="round" stroke-linecap="round" stroke-miterlimit="4"/><path d=" M 603.44 201.319 C 603.44 201.319 603.694 208.256 602.48 209.873 C 601.265 211.49 598.848 212.52 598.848 212.52 C 597.296 212.69 597.284 214.761 598.848 214.761 L 629.152 214.761 C 630.716 214.761 630.704 212.688 629.152 212.52 C 629.152 212.52 626.735 211.49 625.52 209.873 C 624.306 208.256 624.56 201.319 624.56 201.319 L 603.451 201.319 L 603.44 201.319 L 603.44 201.319 Z " fill="none"/></g><path d="M 575.6 145 L 652.4 145 C 653.283 145 654 145.717 654 146.6 L 654 199.72 C 654 200.603 653.283 201.32 652.4 201.32 L 575.6 201.32 C 574.717 201.32 574 200.603 574 199.72 L 574 146.6 C 574 145.717 574.717 145 575.6 145 Z" style="stroke:none;fill:#1A1A1A;stroke-miterlimit:10;"/><path d="M 575.6 145 L 652.4 145 C 653.283 145 654 145.717 654 146.6 L 654 199.72 C 654 200.603 653.283 201.32 652.4 201.32 L 575.6 201.32 C 574.717 201.32 574 200.603 574 199.72 L 574 146.6 C 574 145.717 574.717 145 575.6 145 Z" style="fill:none;stroke:#000000;stroke-width:1.00023937;stroke-linecap:round;stroke-linejoin:round;stroke-miterlimit:2;"/><linearGradient id="_lgradient_12" x1="0.638887850097447" y1="0.002220595555555538" x2="0.6359659558941398" y2="0.9933349600000001" gradientTransform="matrix(72.96,0,0,48,577.52,149.16)" gradientUnits="userSpaceOnUse"><stop offset="0%" stop-opacity="1" style="stop-color:rgb(253,253,253)"/><stop offset="100%" stop-opacity="1" style="stop-color:rgb(212,212,212)"/></linearGradient><path d=" M 577.52 149.16 L 650.48 149.16 L 650.48 197.16 L 577.52 197.16 L 577.52 149.16 Z " fill="url(#_lgradient_12)"/><defs><linearGradient id="_lgradient_13" x1="0.49999954598984925" y1="0.006842884517721401" x2="0.4999995459898491" y2="0.9897578805918441"><stop offset="0%" style="stop-color:#FFFFFF"/><stop offset="1.5967749999999998%" style="stop-color:rgba(255,255,255,0.23529412)"/><stop offset="99.257565%" style="stop-color:rgba(255,255,255,0.15686275)"/><stop offset="100%" style="stop-color:rgba(255,255,255,0.39215687)"/></linearGradient><linearGradient id="_lgradient_14" x1="0.49999954598984925" y1="0.006842884517721401" x2="0.4999995459898491" y2="0.9897578805918441"><stop offset="0%" style="stop-color:#FFFFFF"/><stop offset="1.5967749999999998%" style="stop-color:rgba(255,255,255,0.23529412)"/><stop offset="99.257565%" style="stop-color:rgba(255,255,255,0.15686275)"/><stop offset="100%" style="stop-color:rgba(255,255,255,0.39215687)"/></linearGradient></defs><g style="mix-blend-mode:normal;" opacity="0.2"><path d="M 575.6 145.64 L 652.4 145.64 C 652.93 145.64 653.36 146.07 653.36 146.6 L 653.36 199.72 C 653.36 200.25 652.93 200.68 652.4 200.68 L 575.6 200.68 C 575.07 200.68 574.64 200.25 574.64 199.72 L 574.64 146.6 C 574.64 146.07 575.07 145.64 575.6 145.64 Z" style="fill:none;stroke:#000000;stroke-width:0.99999994;stroke-linecap:round;stroke-linejoin:round;stroke-miterlimit:2;"/></g><g opacity="0.1"><path d=" M 577.52 149.16 L 577.52 197.16 L 650.48 197.16 L 650.48 149.16 L 577.52 149.16 Z  M 578.16 149.8 L 649.84 149.8 L 649.84 196.52 L 578.16 196.52 L 578.16 149.8 Z " fill="rgb(0,0,0)"/></g><g opacity="0.3"><mask id="_mask_5aOtw0yi8ySWZVEZ0ClnqeYKR0P3Dcwm" x="-200%" y="-200%" width="400%" height="400%"><rect x="-200%" y="-200%" width="400%" height="400%" style="fill:white;"/><path d=" M 604.066 201.951 C 604.079 202.421 604.12 203.398 604.046 205.019 C 604.001 206.002 603.919 207.04 603.765 207.959 C 603.611 208.877 603.425 209.665 602.985 210.251 C 601.606 212.087 599.095 213.101 599.095 213.101 C 599.038 213.125 598.978 213.141 598.916 213.148 C 598.416 213.202 598.312 213.47 598.311 213.705 C 598.311 213.822 598.349 213.92 598.419 213.99 C 598.488 214.06 598.596 214.129 598.847 214.129 L 629.153 214.129 C 629.404 214.129 629.512 214.06 629.581 213.99 C 629.651 213.92 629.69 213.823 629.69 213.705 C 629.689 213.47 629.585 213.202 629.085 213.148 C 629.023 213.141 628.962 213.126 628.905 213.101 C 628.905 213.101 626.394 212.087 625.015 210.251 C 624.575 209.665 624.389 208.877 624.235 207.959 C 624.081 207.04 623.999 206.002 623.954 205.019 C 623.88 203.398 623.921 202.421 623.934 201.951" fill="black" stroke="none"/></mask><linearGradient id="_lgradient_15" x1="0.42846464834457276" y1="0.9761726975017782" x2="0.4284646483445728" y2="-0.026106573197237637"><stop offset="0%" stop-opacity="1" style="stop-color:rgb(255,255,255)"/><stop offset="1.719457%" stop-opacity="0.23529412" style="stop-color:rgb(255,255,255)"/><stop offset="100%" stop-opacity="0.15686275" style="stop-color:rgb(255,255,255)"/><stop offset="100%" stop-opacity="0.39215687" style="stop-color:rgb(255,255,255)"/></linearGradient><path d=" M 604.066 201.951 C 604.079 202.421 604.12 203.398 604.046 205.019 C 604.001 206.002 603.919 207.04 603.765 207.959 C 603.611 208.877 603.425 209.665 602.985 210.251 C 601.606 212.087 599.095 213.101 599.095 213.101 C 599.038 213.125 598.978 213.141 598.916 213.148 C 598.416 213.202 598.312 213.47 598.311 213.705 C 598.311 213.822 598.349 213.92 598.419 213.99 C 598.488 214.06 598.596 214.129 598.847 214.129 L 629.153 214.129 C 629.404 214.129 629.512 214.06 629.581 213.99 C 629.651 213.92 629.69 213.823 629.69 213.705 C 629.689 213.47 629.585 213.202 629.085 213.148 C 629.023 213.141 628.962 213.126 628.905 213.101 C 628.905 213.101 626.394 212.087 625.015 210.251 C 624.575 209.665 624.389 208.877 624.235 207.959 C 624.081 207.04 623.999 206.002 623.954 205.019 C 623.88 203.398 623.921 202.421 623.934 201.951" fill="none" mask="url(#_mask_5aOtw0yi8ySWZVEZ0ClnqeYKR0P3Dcwm)" vector-effect="non-scaling-stroke" stroke-width="2" stroke="url(#_lgradient_15)" stroke-linejoin="round" stroke-linecap="round" stroke-miterlimit="4"/><path d=" M 604.066 201.951 C 604.079 202.421 604.12 203.398 604.046 205.019 C 604.001 206.002 603.919 207.04 603.765 207.959 C 603.611 208.877 603.425 209.665 602.985 210.251 C 601.606 212.087 599.095 213.101 599.095 213.101 C 599.038 213.125 598.978 213.141 598.916 213.148 C 598.416 213.202 598.312 213.47 598.311 213.705 C 598.311 213.822 598.349 213.92 598.419 213.99 C 598.488 214.06 598.596 214.129 598.847 214.129 L 629.153 214.129 C 629.404 214.129 629.512 214.06 629.581 213.99 C 629.651 213.92 629.69 213.823 629.69 213.705 C 629.689 213.47 629.585 213.202 629.085 213.148 C 629.023 213.141 628.962 213.126 628.905 213.101 C 628.905 213.101 626.394 212.087 625.015 210.251 C 624.575 209.665 624.389 208.877 624.235 207.959 C 624.081 207.04 623.999 206.002 623.954 205.019 C 623.88 203.398 623.921 202.421 623.934 201.951" fill="none"/></g></g><g><g opacity="0.9"><linearGradient id="_lgradient_16" x1="0.1464466094067262" y1="0.14644660940672627" x2="0.8535533905932737" y2="0.8535533905932737" gradientTransform="matrix(20.48,0,0,31.466,619.493,149.107)" gradientUnits="userSpaceOnUse"><stop offset="0%" stop-opacity="1" style="stop-color:rgb(198,38,46)"/><stop offset="100%" stop-opacity="1" style="stop-color:rgb(243,115,41)"/></linearGradient><rect x="619.493" y="149.107" width="20.48" height="31.466" transform="matrix(0,-1,1,0,464.893,794.573)" fill="url(#_lgradient_16)"/></g><rect x="619.493" y="149.107" width="20.48" height="31.466" transform="matrix(0,-1,1,0,464.893,794.573)" fill="none" vector-effect="non-scaling-stroke" stroke-width="0.674" stroke="rgb(14,20,31)" stroke-linejoin="round" stroke-linecap="round" stroke-miterlimit="2"/><g opacity="0.4"><linearGradient id="_lgradient_17" x1="0.9919354986992442" y1="0.5499999999999998" x2="-0.008062662594459091" y2="0.5499999999999997"><stop offset="0%" stop-opacity="1" style="stop-color:rgb(255,255,255)"/><stop offset="1.6129040000000001%" stop-opacity="0.09883721" style="stop-color:rgb(255,255,255)"/><stop offset="98.387098%" stop-opacity="0.09883721" style="stop-color:rgb(255,255,255)"/><stop offset="100%" stop-opacity="0.24705882" style="stop-color:rgb(255,255,255)"/><stop offset="100%" stop-opacity="0.78488374" style="stop-color:rgb(255,255,255)"/></linearGradient><rect x="619.813" y="149.749" width="19.84" height="30.182" transform="matrix(0,-1,1,0,464.893,794.573)" fill="none" vector-effect="non-scaling-stroke" stroke-width="0.674" stroke="url(#_lgradient_17)" stroke-linejoin="miter" stroke-linecap="round" stroke-miterlimit="2"/></g></g><g><g opacity="0.9"><linearGradient id="_lgradient_18" x1="0.1464466094067262" y1="0.14644660940672627" x2="0.8535533905932737" y2="0.8535533905932737" gradientTransform="matrix(22.24,0,0,34.17,603.094,155.035)" gradientUnits="userSpaceOnUse"><stop offset="0%" stop-opacity="1" style="stop-color:rgb(165,109,226)"/><stop offset="100%" stop-opacity="1" style="stop-color:rgb(222,62,128)"/></linearGradient><rect x="603.094" y="155.035" width="22.24" height="34.17" transform="matrix(0,-1,1,0,442.094,786.334)" fill="url(#_lgradient_18)"/></g><rect x="603.094" y="155.035" width="22.24" height="34.17" transform="matrix(0,-1,1,0,442.094,786.334)" fill="none" vector-effect="non-scaling-stroke" stroke-width="0.674" stroke="rgb(69,41,129)" stroke-linejoin="round" stroke-linecap="round" stroke-miterlimit="2"/><g opacity="0.4"><linearGradient id="_lgradient_19" x1="0.9919354986992442" y1="0.5499999999999998" x2="-0.008062662594459091" y2="0.5499999999999997"><stop offset="0%" stop-opacity="1" style="stop-color:rgb(255,255,255)"/><stop offset="1.6129040000000001%" stop-opacity="0.09883721" style="stop-color:rgb(255,255,255)"/><stop offset="98.387098%" stop-opacity="0.09883721" style="stop-color:rgb(255,255,255)"/><stop offset="100%" stop-opacity="0.24705882" style="stop-color:rgb(255,255,255)"/><stop offset="100%" stop-opacity="0.78488374" style="stop-color:rgb(255,255,255)"/></linearGradient><rect x="603.442" y="155.732" width="21.545" height="32.776" transform="matrix(0,-1,1,0,442.094,786.334)" fill="none" vector-effect="non-scaling-stroke" stroke-width="0.674" stroke="url(#_lgradient_19)" stroke-linejoin="miter" stroke-linecap="round" stroke-miterlimit="2"/></g></g><g><g opacity="0.9"><linearGradient id="_lgradient_20" x1="0.1464466094067262" y1="0.14644660940672627" x2="0.8535533905932737" y2="0.8535533905932737" gradientTransform="matrix(24.323,0,0,37.37,589.484,161.036)" gradientUnits="userSpaceOnUse"><stop offset="0%" stop-opacity="1" style="stop-color:rgb(54,137,230)"/><stop offset="100%" stop-opacity="1" style="stop-color:rgb(40,188,163)"/></linearGradient><rect x="589.484" y="161.036" width="24.323" height="37.37" transform="matrix(0,-1,1,0,421.924,781.367)" fill="url(#_lgradient_20)"/></g><rect x="589.484" y="161.036" width="24.323" height="37.37" transform="matrix(0,-1,1,0,421.924,781.367)" fill="none" vector-effect="non-scaling-stroke" stroke-width="0.674" stroke="rgb(0,46,153)" stroke-linejoin="round" stroke-linecap="round" stroke-miterlimit="2"/><g opacity="0.4"><linearGradient id="_lgradient_21" x1="0.9919354986992442" y1="0.5499999999999998" x2="-0.008062662594459091" y2="0.5499999999999997"><stop offset="0%" stop-opacity="1" style="stop-color:rgb(255,255,255)"/><stop offset="1.6129040000000001%" stop-opacity="0.09883721" style="stop-color:rgb(255,255,255)"/><stop offset="98.387098%" stop-opacity="0.09883721" style="stop-color:rgb(255,255,255)"/><stop offset="100%" stop-opacity="0.24705882" style="stop-color:rgb(255,255,255)"/><stop offset="100%" stop-opacity="0.78488374" style="stop-color:rgb(255,255,255)"/></linearGradient><rect x="589.864" y="161.799" width="23.563" height="35.845" transform="matrix(0,-1,1,0,421.924,781.367)" fill="none" vector-effect="non-scaling-stroke" stroke-width="0.674" stroke="url(#_lgradient_21)" stroke-linejoin="miter" stroke-linecap="round" stroke-miterlimit="2"/></g></g></svg>