<svg id="Capa_1" data-name="Capa 1" xmlns="http://www.w3.org/2000/svg" viewBox="0 0 197 37.27"><title>unsplashlogo</title><path d="M35.61,5.46H30.83l-1.1-2.9A4.27,4.27,0,0,0,26,0h-11a4.27,4.27,0,0,0-3.69,2.56l-1.09,2.9H5.49A5.47,5.47,0,0,0,0,10.92V30.09a5.49,5.49,0,0,0,5.49,5.49H35.61a5.5,5.5,0,0,0,5.49-5.49V10.92A5.51,5.51,0,0,0,35.61,5.46ZM20.55,30.09a9.57,9.57,0,1,1,9.57-9.57A9.58,9.58,0,0,1,20.55,30.09Z" style="fill:#fff"/><circle cx="20.52" cy="20.49" r="6.17" style="fill:#fff"/><path d="M71.11,22.61c0,3-1.8,5-5,5s-5-2-5-5V7.69h-5V23.08c0,5.24,3.89,8.81,10,8.81s10-3.57,10-8.81V7.69h-5V22.61Z" style="fill:#fff"/><path d="M89.63,13.48A5.57,5.57,0,0,0,84.11,17H84V13.82H79.36V31.5h4.81V21.37c0-2.28,1.38-3.89,3.52-3.89s3.24,1.32,3.24,3.63V31.5h4.81V20.1C95.77,16,93.55,13.48,89.63,13.48Z" style="fill:#fff"/><path d="M108.83,21.28l-3.38-.73c-1.55-.37-2.31-1-2.31-1.83,0-1.13,1.1-1.89,2.76-1.89s2.93.88,3,2.28h4.44c0-3.43-3-5.68-7.37-5.68S98.53,15.65,98.53,19c0,2.62,1.72,4.37,5.07,5.13l3.26.73c1.58.36,2.17.87,2.17,1.77,0,1.15-1.1,1.89-2.93,1.89s-3.1-.85-3.32-2.34h-4.7c.25,3.43,3.15,5.71,7.88,5.71s7.85-2.28,7.85-5.77C113.81,23.48,112.38,22.07,108.83,21.28Z" style="fill:#fff"/><path d="M126.54,13.54a5.79,5.79,0,0,0-5.49,3.38h-.11v-3.1h-4.76V37.27H121V28.52h.12a5.75,5.75,0,0,0,5.48,3.23c4.42,0,7.15-3.43,7.15-9.12S131,13.54,126.54,13.54ZM124.93,27.9c-2.36,0-3.91-2.06-3.91-5.24s1.55-5.26,3.91-5.26,3.92,2.05,3.92,5.26S127.33,27.9,124.93,27.9Z" style="fill:#fff"/><rect x="136.36" y="7.69" width="4.81" height="23.82" style="fill:#fff"/><path d="M152.32,13.43c-4.67,0-7.6,2.36-7.79,5.8h4.39c.22-1.3,1.38-2.2,3.15-2.2s3,1,3,2.62V20.8l-4.39.29c-4.4.25-6.87,2.13-6.87,5.34s2.56,5.35,5.91,5.35a6.1,6.1,0,0,0,5.4-3h.12v2.7h4.64V19.34C159.81,15.79,156.88,13.43,152.32,13.43ZM155.08,25c0,1.91-1.74,3.29-3.83,3.29-1.63,0-2.73-.82-2.73-2.14s1-2.05,2.82-2.2l3.72-.22V25Z" style="fill:#fff"/><path d="M173,21.28l-3.38-.73c-1.55-.37-2.31-1-2.31-1.83,0-1.13,1.1-1.89,2.76-1.89s2.93.88,3,2.28h4.45c-.05-3.43-3-5.68-7.37-5.68s-7.46,2.22-7.46,5.57c0,2.62,1.71,4.37,5.06,5.13l3.27.73c1.58.36,2.17.87,2.17,1.77,0,1.15-1.1,1.89-2.93,1.89s-3.1-.85-3.32-2.34h-4.7c.25,3.43,3.15,5.71,7.88,5.71s7.85-2.28,7.85-5.77C177.94,23.48,176.51,22.07,173,21.28Z" style="fill:#fff"/><path d="M190.83,13.48A5.59,5.59,0,0,0,185.29,17h-.11V7.69h-4.73V31.5h4.81V21.39c0-2.33,1.32-3.91,3.6-3.91s3.33,1.38,3.33,3.66V31.5H197V20.13C197,16,194.75,13.48,190.83,13.48Z" style="fill:#fff"/></svg>