<?xml version="1.0" encoding="UTF-8" standalone="no"?>
<svg
   xmlns:dc="http://purl.org/dc/elements/1.1/"
   xmlns:cc="http://creativecommons.org/ns#"
   xmlns:rdf="http://www.w3.org/1999/02/22-rdf-syntax-ns#"
   xmlns:svg="http://www.w3.org/2000/svg"
   xmlns="http://www.w3.org/2000/svg"
   xmlns:xlink="http://www.w3.org/1999/xlink"
   xmlns:sodipodi="http://sodipodi.sourceforge.net/DTD/sodipodi-0.dtd"
   xmlns:inkscape="http://www.inkscape.org/namespaces/inkscape"
   id="Capa_1"
   data-name="Capa 1"
   viewBox="0 0 251.615 178.91901"
   version="1.1"
   sodipodi:docname="unsplashlogo.svg"
   width="193.55"
   height="137.63"
   inkscape:version="0.92.3 (2405546, 2018-03-11)">
  <metadata
     id="metadata29">
    <rdf:RDF>
      <cc:Work
         rdf:about="">
        <dc:format>image/svg+xml</dc:format>
        <dc:type
           rdf:resource="http://purl.org/dc/dcmitype/StillImage" />
        <dc:title>unsplashlogo</dc:title>
      </cc:Work>
    </rdf:RDF>
  </metadata>
  <defs
     id="defs27">
    <clipPath
       clipPathUnits="userSpaceOnUse"
       id="clipPath4553">
      <use
         x="0"
         y="0"
         xlink:href="#g4549"
         id="use4555"
         width="100%"
         height="100%" />
    </clipPath>
  </defs>
  <sodipodi:namedview
     pagecolor="#ffffff"
     bordercolor="#666666"
     borderopacity="1"
     objecttolerance="10"
     gridtolerance="10"
     guidetolerance="10"
     inkscape:pageopacity="0"
     inkscape:pageshadow="2"
     inkscape:window-width="1366"
     inkscape:window-height="705"
     id="namedview25"
     showgrid="false"
     scale-x="1.3"
     inkscape:pagecheckerboard="true"
     inkscape:zoom="1.4621545"
     inkscape:cx="87.20009"
     inkscape:cy="68.815002"
     inkscape:window-x="0"
     inkscape:window-y="30"
     inkscape:window-maximized="1"
     inkscape:current-layer="Capa_1" />
  <title
     id="title2">unsplashlogo</title>
  <g
     id="g4551"
     clip-path="url(#clipPath4553)"
     transform="translate(-0.31579806,1.9734244)">
    <g
       inkscape:label="Clip"
       id="g4549">
      <path
         inkscape:connector-curvature="0"
         id="path4"
         style="fill:#ffffff"
         d="m 88.700266,97.751078 v -43.85 h 25.000004 v 21.84 h 29.3 v -22.07 h 7.71 c 5.07,0 10.14,0 15.21,0 1.25,0 2.29,0 2.29,1.73 0,14 0,28.09 0,42.38 z" />
      <path
         inkscape:connector-curvature="0"
         id="path6"
         style="fill:#ffffff"
         d="m 113.95027,18.671078 h 29 v 21.92 h -29 z" />
      <path
         inkscape:connector-curvature="0"
         id="path8"
         style="fill:#ffffff"
         d="m 29.530266,111.57108 h 6.81 v 4.82 c 0,5.64 0,11.29 0,16.93 0.06,4.88 2.83,7.68 7.38,7.65 4.55,-0.03 7.06,-2.73 7.12,-7.58 0.08,-7.16 0,-14.32 0,-21.72 h 7 c 0,4.42 0,8.8 0,13.18 0,3.35 0.13,6.71 -0.15,10 -0.62,7.58 -5.85,12.57 -13.24,12.88 -7.84,0.37 -14.11,-4.12 -14.77,-11.73 -0.67,-8.05 -0.15,-16.19 -0.15,-24.43 z" />
      <path
         inkscape:connector-curvature="0"
         id="path10"
         style="fill:#ffffff"
         d="m 117.25027,145.44108 v 10.86 h -6.67 v -33.94 c 2.44,0.53 5.24,-1.7 6.88,1.79 4.6,-3.16 10.92,-3.66 15.35,1.15 4,4.34 4.15,13 0.49,17.91 -3.48,4.7 -8.9,5.46 -16.05,2.23 z m 12.09,-10.85 c 0,-4 -2.49,-6.79 -6.1,-6.83 -3.61,-0.04 -6,2.8 -6.05,6.87 0,4.24 2.47,7 6.24,6.93 3.58,-0.07 5.91,-2.81 5.91,-6.97 z" />
      <path
         inkscape:connector-curvature="0"
         id="path12"
         style="fill:#ffffff"
         d="m 200.79027,146.88108 v -35.21 h 6.55 v 11.4 c 2.88,-0.45 5.53,-1.21 8.17,-1.19 3.76,0 6.78,2.38 7.1,5.93 0.56,6.29 0.16,12.68 0.16,19.13 h -6.19 c 0,-4.51 0,-8.87 0,-13.23 0,-4.09 -1.47,-6 -4.46,-6 -2.99,0 -4.68,2.09 -4.7,6.2 0,4.28 0,8.55 0,13 z" />
      <path
         inkscape:connector-curvature="0"
         id="path14"
         style="fill:#ffffff"
         d="m 167.45027,124.42108 c 1.36,-3.88 4.35,-1.26 6.69,-2.35 v 24.6 c -4.83,1.05 -6,0.73 -6.7,-2 -2.6,2.32 -5.59,3.76 -8.93,2.61 a 16.3,16.3 0 0 1 -6.53,-3.73 c -4.33,-4.61 -4.09,-13.67 0,-18.29 3.82,-4.18 9.79,-4.59 15.47,-0.84 z m -5.79,17.14 c 3.57,0 6.08,-2.84 6.1,-6.86 0.02,-4.02 -2.61,-7 -6,-7 -3.76,0 -6.24,2.82 -6.19,7 0.05,4.18 2.44,6.88 6.09,6.86 z" />
      <path
         inkscape:connector-curvature="0"
         id="path16"
         style="fill:#ffffff"
         d="m 68.700266,146.93108 h -6.46 v -24.26 c 4.9,-0.83 5.81,-0.58 6.62,1.67 a 26.42,26.42 0 0 1 3.95,-2.12 c 5.88,-1.94 11.31,1.58 11.63,7.77 0.28,5.53 0.06,11.08 0.06,16.87 h -6.63 v -10 c 0,-1.34 0,-2.68 0,-4 -0.2,-3.49 -1.7,-5.19 -4.53,-5.19 -2.83,0 -4.46,1.82 -4.6,5.12 -0.15,3.63 -0.06,7.27 -0.07,10.9 z" />
      <path
         inkscape:connector-curvature="0"
         id="path18"
         style="fill:#ffffff"
         d="m 106.43027,129.37108 c -2.51,-0.19 -5,0.89 -6.830004,-1.85 -0.48,-0.71 -2.6,-0.54 -3.9,-0.35 -0.55,0.07 -1.3,1.25 -1.29,1.91 a 2.51,2.51 0 0 0 1.39,1.86 c 1.69,0.62 3.51,0.85 5.250004,1.35 4.36,1.26 6.56,3.91 6.43,7.65 -0.13,3.74 -2.88,6.65 -7,7.57 -6.560004,1.46 -12.190004,-1.94 -12.890004,-8 2.52,0 5.12,-1.22 7,1.88 0.48,0.79 2.26,1.25 3.33,1.1 1.07,-0.15 2.090004,-1.24 3.130004,-1.92 -0.8,-0.91 -1.420004,-2.15 -2.420004,-2.64 -1.42,-0.7 -3.14,-0.76 -4.69,-1.23 -3.58,-1.09 -5.56,-3.45 -5.73,-6.68 a 7.75,7.75 0 0 1 4.8,-7.49 c 6.97,-3.01 13.960004,1.42 13.420004,6.84 z" />
      <path
         inkscape:connector-curvature="0"
         id="path20"
         style="fill:#ffffff"
         d="m 197.42027,129.25108 c -3.32,0 -5.82,1.07 -7.7,-1.74 -0.46,-0.69 -2.33,-0.82 -3.41,-0.58 a 3,3 0 0 0 -1.74,2.2 c -0.08,0.58 0.91,1.66 1.64,1.94 1.6,0.6 3.35,0.77 5,1.24 4.13,1.18 6.46,3.92 6.4,7.41 -0.06,3.69 -2.8,6.81 -6.86,7.78 -6.68,1.62 -12.55,-1.92 -13,-8 2.53,0 5.15,-1.08 7,2 0.5,0.81 2.42,1.16 3.61,1 1,-0.12 1.86,-1.28 2.78,-2 -0.73,-0.85 -1.31,-2.07 -2.24,-2.48 -1.72,-0.75 -3.71,-0.9 -5.49,-1.56 -5.86,-2.14 -7,-8.74 -2.25,-12.73 3.43,-2.89 9.81,-3 13,0.17 1.3,1.28 1.99,3.2 3.26,5.35 z" />
      <path
         inkscape:connector-curvature="0"
         id="path22"
         style="fill:#ffffff"
         d="m 139.24027,111.57108 h 6.33 v 35.28 h -6.33 z" />
    </g>
  </g>
</svg>
