<svg id="Capa_1" data-name="Capa 1" xmlns="http://www.w3.org/2000/svg" viewBox="0 0 193.55 164.63"><title>unsplashlogo</title><g id="g4551"><g id="g4549"><g id="path4"><path d="M68,103.6V69.87H87.22v16.8h22.54v-17h17.63c1,0,1.76,0,1.76,1.33v32.6Z" style="fill:#fff"/></g><g id="path6"><rect x="87.41" y="42.77" width="22.31" height="16.86" style="fill:#fff"/></g><g id="path8"><path d="M22.47,114.23h5.24V131c.05,3.75,2.18,5.91,5.68,5.88s5.43-2.1,5.47-5.83c.07-5.5,0-11,0-16.7h5.39v10.13c0,2.58.1,5.17-.12,7.7-.47,5.83-4.5,9.67-10.18,9.9-6,.29-10.85-3.17-11.36-9C22.07,126.83,22.47,120.57,22.47,114.23Z" style="fill:#fff"/></g><g id="path10"><path d="M90,140.28v8.36H84.82V122.53c1.88.41,4-1.31,5.29,1.38,3.54-2.44,8.4-2.82,11.81.88,3.08,3.34,3.19,10,.38,13.78C99.62,142.18,95.45,142.77,90,140.28Zm9.3-8.34c0-3.08-1.92-5.23-4.69-5.26s-4.62,2.16-4.66,5.29,1.9,5.38,4.8,5.33,4.55-2.16,4.55-5.36Z" style="fill:#fff"/></g><g id="path12"><path d="M154.21,141.39V114.31h5v8.76a40.65,40.65,0,0,1,6.28-.91c2.9,0,5.22,1.83,5.47,4.56.43,4.84.12,9.75.12,14.72h-4.76V131.26c0-3.15-1.13-4.62-3.43-4.62s-3.6,1.61-3.62,4.77v10Z" style="fill:#fff"/></g><g id="path14"><path d="M128.56,124.11c1.05-3,3.35-1,5.15-1.8v18.92c-3.71.81-4.61.56-5.15-1.54-2,1.78-4.3,2.89-6.87,2a12.58,12.58,0,0,1-5-2.87c-3.33-3.55-3.14-10.52,0-14.07,2.94-3.22,7.54-3.53,11.9-.65Zm-4.45,13.19c2.75,0,4.68-2.19,4.69-5.28s-2-5.38-4.61-5.38c-2.89,0-4.8,2.17-4.76,5.38S121.3,137.31,124.11,137.3Z" style="fill:#fff"/></g><g id="path16"><path d="M52.6,141.43h-5V122.77c3.77-.64,4.47-.45,5.1,1.28a20.55,20.55,0,0,1,3-1.63c4.53-1.49,8.7,1.22,8.95,6,.22,4.25.05,8.52.05,13h-5.1V130.61c-.16-2.69-1.31-4-3.49-4s-3.43,1.4-3.54,3.94c-.11,2.79,0,5.59-.05,8.39Z" style="fill:#fff"/></g><g id="path18"><path d="M81.63,127.92c-1.93-.15-3.85.69-5.26-1.42-.37-.55-2-.42-3-.27-.42,0-1,1-1,1.47a1.94,1.94,0,0,0,1.07,1.43c1.3.48,2.7.65,4,1,3.35,1,5,3,4.94,5.88s-2.21,5.12-5.38,5.82c-5,1.13-9.38-1.49-9.92-6.15,1.94,0,3.94-.94,5.39,1.45a3.08,3.08,0,0,0,2.56.84c.82-.11,1.61-.95,2.41-1.47-.62-.7-1.09-1.66-1.86-2a23.62,23.62,0,0,0-3.61-.95c-2.76-.84-4.28-2.65-4.41-5.14a6,6,0,0,1,3.69-5.76c5.36-2.32,10.74,1.09,10.33,5.26Z" style="fill:#fff"/></g><g id="path20"><path d="M151.62,127.83c-2.56,0-4.48.82-5.92-1.34-.36-.53-1.8-.63-2.63-.45a2.33,2.33,0,0,0-1.34,1.7c-.06.44.7,1.27,1.27,1.49,1.23.46,2.57.59,3.84,1,3.18.91,5,3,4.92,5.7a6.43,6.43,0,0,1-5.27,6c-5.14,1.24-9.66-1.48-10-6.16,1.94,0,4-.83,5.38,1.54.39.62,1.86.89,2.78.77.77-.09,1.43-1,2.14-1.54-.56-.65-1-1.59-1.73-1.91-1.32-.57-2.85-.69-4.22-1.2-4.51-1.64-5.38-6.72-1.73-9.79,2.64-2.22,7.55-2.31,10,.13,1,1,1.53,2.46,2.51,4.12Z" style="fill:#fff"/></g><g id="path22"><rect x="106.86" y="114.23" width="4.87" height="27.14" style="fill:#fff"/></g></g></g><text transform="translate(57.55 29.39)" style="font-size:16px;fill:#fff;font-family:MyriadPro-Regular, Myriad Pro;letter-spacing:-0.02496337890625em">P<tspan x="8.11" y="0" style="letter-spacing:-0.00701904296875em">o</tspan><tspan x="16.78" y="0" style="letter-spacing:-0.009979248046875em">w</tspan><tspan x="28.4" y="0" style="letter-spacing:-0.000030517578125em">e</tspan><tspan x="36.42" y="0" style="letter-spacing:-0.009979248046875em">r</tspan><tspan x="41.49" y="0" style="letter-spacing:-0.000030517578125em">ed </tspan><tspan x="61.92" y="0" style="letter-spacing:-0.0069580078125em">b</tspan><tspan x="70.91" y="0" style="letter-spacing:-0.00006103515625em">y</tspan></text></svg>