<?xml version="1.0" encoding="UTF-8" standalone="no"?><!-- Generator: Gravit.io --><svg xmlns="http://www.w3.org/2000/svg" xmlns:xlink="http://www.w3.org/1999/xlink" style="isolation:isolate" viewBox="0 0 171.774 167.08" width="171.774pt" height="167.08pt"><g><g><rect x="36.602" y="148.913" width="6.368" height="4.715" transform="matrix(1,0,0,1,0,0)" fill="rgb(19,19,19)"/><path d=" M 40.317 117.872 L 19.09 149.712 L 61.544 149.712 L 40.317 117.872 Z " fill="rgb(19,19,19)" vector-effect="non-scaling-stroke" stroke-width="1" stroke="rgb(34,34,34)" stroke-linejoin="miter" stroke-linecap="square" stroke-miterlimit="3"/><path d=" M 40.317 113.095 L 24.397 136.976 L 56.237 136.976 L 40.317 113.095 Z " fill="rgb(19,19,19)" vector-effect="non-scaling-stroke" stroke-width="1" stroke="rgb(34,34,34)" stroke-linejoin="miter" stroke-linecap="square" stroke-miterlimit="3"/><path d=" M 40.317 108.319 L 29.704 124.24 L 50.931 124.24 L 40.317 108.319 Z " fill="rgb(19,19,19)" vector-effect="non-scaling-stroke" stroke-width="1" stroke="rgb(34,34,34)" stroke-linejoin="miter" stroke-linecap="square" stroke-miterlimit="3"/><path d=" M 40.317 105.135 L 33.949 114.688 L 46.685 114.688 L 40.317 105.135 Z " fill="rgb(19,19,19)" vector-effect="non-scaling-stroke" stroke-width="1" stroke="rgb(34,34,34)" stroke-linejoin="miter" stroke-linecap="square" stroke-miterlimit="3"/><path d="M 30.234 132.2 L 38.194 132.2 C 39.073 132.2 39.786 132.913 39.786 133.792 L 39.786 133.792 C 39.786 134.67 39.073 135.384 38.194 135.384 L 30.234 135.384 C 29.356 135.384 28.642 134.67 28.642 133.792 L 28.642 133.792 C 28.642 132.913 29.356 132.2 30.234 132.2 Z" style="stroke:none;fill:#131313;stroke-miterlimit:10;"/></g><g><rect x="124.324" y="147.204" width="6.368" height="4.715" transform="matrix(1,0,0,1,0,0)" fill="rgb(19,19,19)"/><path d=" M 128.039 116.162 L 106.812 148.003 L 149.266 148.003 L 128.039 116.162 Z " fill="rgb(19,19,19)" vector-effect="non-scaling-stroke" stroke-width="1" stroke="rgb(34,34,34)" stroke-linejoin="miter" stroke-linecap="square" stroke-miterlimit="3"/><path d=" M 128.039 111.386 L 112.119 135.267 L 143.959 135.267 L 128.039 111.386 Z " fill="rgb(19,19,19)" vector-effect="non-scaling-stroke" stroke-width="1" stroke="rgb(34,34,34)" stroke-linejoin="miter" stroke-linecap="square" stroke-miterlimit="3"/><path d=" M 128.039 106.61 L 117.425 122.531 L 138.652 122.531 L 128.039 106.61 Z " fill="rgb(19,19,19)" vector-effect="non-scaling-stroke" stroke-width="1" stroke="rgb(34,34,34)" stroke-linejoin="miter" stroke-linecap="square" stroke-miterlimit="3"/><path d=" M 128.039 103.426 L 121.671 112.978 L 134.407 112.978 L 128.039 103.426 Z " fill="rgb(19,19,19)" vector-effect="non-scaling-stroke" stroke-width="1" stroke="rgb(34,34,34)" stroke-linejoin="miter" stroke-linecap="square" stroke-miterlimit="3"/><path d="M 117.956 130.491 L 125.916 130.491 C 126.795 130.491 127.508 131.204 127.508 132.083 L 127.508 132.083 C 127.508 132.961 126.795 133.675 125.916 133.675 L 117.956 133.675 C 117.077 133.675 116.364 132.961 116.364 132.083 L 116.364 132.083 C 116.364 131.204 117.077 130.491 117.956 130.491 Z" style="stroke:none;fill:#131313;stroke-miterlimit:10;"/></g><g><rect x="80.068" y="145.364" width="8.509" height="6.3" transform="matrix(1,0,0,1,0,0)" fill="rgb(19,19,19)"/><path d=" M 85.031 103.888 L 56.669 146.431 L 113.393 146.431 L 85.031 103.888 Z " fill="rgb(19,19,19)" vector-effect="non-scaling-stroke" stroke-width="1" stroke="rgb(34,34,34)" stroke-linejoin="miter" stroke-linecap="square" stroke-miterlimit="3"/><path d=" M 85.031 97.507 L 63.76 129.414 L 106.303 129.414 L 85.031 97.507 Z " fill="rgb(19,19,19)" vector-effect="non-scaling-stroke" stroke-width="1" stroke="rgb(34,34,34)" stroke-linejoin="miter" stroke-linecap="square" stroke-miterlimit="3"/><path d=" M 85.031 91.125 L 70.85 112.397 L 99.212 112.397 L 85.031 91.125 Z " fill="rgb(19,19,19)" vector-effect="non-scaling-stroke" stroke-width="1" stroke="rgb(34,34,34)" stroke-linejoin="miter" stroke-linecap="square" stroke-miterlimit="3"/><path d=" M 85.031 86.871 L 76.523 99.634 L 93.54 99.634 L 85.031 86.871 Z " fill="rgb(19,19,19)" vector-effect="non-scaling-stroke" stroke-width="1" stroke="rgb(34,34,34)" stroke-linejoin="miter" stroke-linecap="square" stroke-miterlimit="3"/><path d="M 71.559 123.032 L 82.195 123.032 C 83.369 123.032 84.322 123.985 84.322 125.159 L 84.322 125.159 C 84.322 126.333 83.369 127.287 82.195 127.287 L 71.559 127.287 C 70.385 127.287 69.432 126.333 69.432 125.159 L 69.432 125.159 C 69.432 123.985 70.385 123.032 71.559 123.032 Z" style="stroke:none;fill:#131313;stroke-miterlimit:10;"/></g><rect x="70.775" y="147.327" width="3.418" height="3.418" transform="matrix(1,0,0,1,0,0)" fill="rgb(97,73,47)"/><rect x="149.266" y="148.182" width="3.418" height="2.531" transform="matrix(1,0,0,1,0,0)" fill="rgb(97,73,47)"/><rect x="136.593" y="148.182" width="3.418" height="2.531" transform="matrix(1,0,0,1,0,0)" fill="rgb(97,73,47)"/><rect x="18.236" y="147.947" width="3.418" height="2.531" transform="matrix(1,0,0,1,0,0)" fill="rgb(97,73,47)"/><path d=" M 72.199 126.785 L 60.805 147.295 L 83.593 147.295 L 72.199 126.785 Z " fill="rgb(99,185,88)" vector-effect="non-scaling-stroke" stroke-width="1" stroke="rgb(36,57,48)" stroke-linejoin="miter" stroke-linecap="square" stroke-miterlimit="3"/><path d=" M 150.405 127.673 L 139.011 148.182 L 161.799 148.182 L 150.405 127.673 Z " fill="rgb(99,185,88)" vector-effect="non-scaling-stroke" stroke-width="1" stroke="rgb(36,57,48)" stroke-linejoin="miter" stroke-linecap="square" stroke-miterlimit="3"/><path d=" M 72.199 124.222 L 63.654 139.604 L 80.745 139.604 L 72.199 124.222 Z " fill="rgb(99,185,88)" vector-effect="non-scaling-stroke" stroke-width="1" stroke="rgb(36,57,48)" stroke-linejoin="miter" stroke-linecap="square" stroke-miterlimit="3"/><path d=" M 150.405 125.109 L 141.86 140.491 L 158.951 140.491 L 150.405 125.109 Z " fill="rgb(99,185,88)" vector-effect="non-scaling-stroke" stroke-width="1" stroke="rgb(36,57,48)" stroke-linejoin="miter" stroke-linecap="square" stroke-miterlimit="3"/><path d=" M 72.199 121.658 L 66.502 131.913 L 77.896 131.913 L 72.199 121.658 Z " fill="rgb(99,185,88)" vector-effect="non-scaling-stroke" stroke-width="1" stroke="rgb(36,57,48)" stroke-linejoin="miter" stroke-linecap="square" stroke-miterlimit="3"/><path d=" M 150.405 122.545 L 144.708 132.8 L 156.102 132.8 L 150.405 122.545 Z " fill="rgb(99,185,88)" vector-effect="non-scaling-stroke" stroke-width="1" stroke="rgb(36,57,48)" stroke-linejoin="miter" stroke-linecap="square" stroke-miterlimit="3"/><path d=" M 72.199 119.949 L 68.781 125.076 L 75.617 125.076 L 72.199 119.949 Z " fill="rgb(255,255,255)" vector-effect="non-scaling-stroke" stroke-width="1" stroke="rgb(36,57,48)" stroke-linejoin="miter" stroke-linecap="square" stroke-miterlimit="3"/><path d=" M 150.405 120.836 L 146.987 125.964 L 153.823 125.964 L 150.405 120.836 Z " fill="rgb(255,255,255)" vector-effect="non-scaling-stroke" stroke-width="1" stroke="rgb(36,57,48)" stroke-linejoin="miter" stroke-linecap="square" stroke-miterlimit="3"/><g><path d="M 12.999 150.745 L 46.26 150.745 C 47.929 150.745 49.284 152.086 49.284 153.736 L 49.284 153.736 C 49.284 155.387 47.929 156.727 46.26 156.727 L 12.999 156.727 C 11.33 156.727 9.975 155.387 9.975 153.736 L 9.975 153.736 C 9.975 152.086 11.33 150.745 12.999 150.745 Z" style="stroke:none;fill:#FFFFFF;stroke-miterlimit:10;"/><path d="M 64.239 150.745 L 81.329 150.745 C 82.98 150.745 84.32 152.086 84.32 153.736 L 84.32 153.736 C 84.32 155.387 82.98 156.727 81.329 156.727 L 64.239 156.727 C 62.588 156.727 61.248 155.387 61.248 153.736 L 61.248 153.736 C 61.248 152.086 62.588 150.745 64.239 150.745 Z" style="stroke:none;fill:#FFFFFF;stroke-miterlimit:10;"/><path d="M 101.327 150.745 L 159.895 150.745 C 160.792 150.745 161.52 151.474 161.52 152.371 L 161.52 154.248 C 161.52 155.144 160.792 155.873 159.895 155.873 L 101.327 155.873 C 100.43 155.873 99.702 155.144 99.702 154.248 L 99.702 152.371 C 99.702 151.474 100.43 150.745 101.327 150.745 Z" style="stroke:none;fill:#FFFFFF;stroke-miterlimit:10;"/><path d="M 48.035 152.417 L 62.497 152.417 C 63.222 152.417 63.811 153 63.811 153.718 L 63.811 153.718 C 63.811 154.435 63.222 155.018 62.497 155.018 L 48.035 155.018 C 47.31 155.018 46.72 154.435 46.72 153.718 L 46.72 153.718 C 46.72 153 47.31 152.417 48.035 152.417 Z" style="stroke:none;fill:#FFFFFF;stroke-miterlimit:10;"/><path d="M 83.926 152.417 L 98.387 152.417 C 99.113 152.417 99.702 153 99.702 153.718 L 99.702 153.718 C 99.702 154.435 99.113 155.018 98.387 155.018 L 83.926 155.018 C 83.2 155.018 82.611 154.435 82.611 153.718 L 82.611 153.718 C 82.611 153 83.2 152.417 83.926 152.417 Z" style="stroke:none;fill:#FFFFFF;stroke-miterlimit:10;"/><path d="M 38.602 154.164 L 38.602 154.164 C 40.253 154.164 41.593 155.504 41.593 157.155 L 41.593 157.155 C 41.593 158.805 40.253 160.145 38.602 160.145 L 38.602 160.145 C 36.951 160.145 35.611 158.805 35.611 157.155 L 35.611 157.155 C 35.611 155.504 36.951 154.164 38.602 154.164 Z" style="stroke:none;fill:#FFFFFF;stroke-miterlimit:10;"/><path d="M 69.366 152.455 L 69.366 152.455 C 71.017 152.455 72.357 153.795 72.357 155.445 L 72.357 155.445 C 72.357 157.096 71.017 158.436 69.366 158.436 L 69.366 158.436 C 67.715 158.436 66.375 157.096 66.375 155.445 L 66.375 155.445 C 66.375 153.795 67.715 152.455 69.366 152.455 Z" style="stroke:none;fill:#FFFFFF;stroke-miterlimit:10;"/><path d="M 100.984 151.6 L 100.984 151.6 C 102.635 151.6 103.975 152.94 103.975 154.591 L 103.975 154.591 C 103.975 156.242 102.635 157.582 100.984 157.582 L 100.984 157.582 C 99.333 157.582 97.993 156.242 97.993 154.591 L 97.993 154.591 C 97.993 152.94 99.333 151.6 100.984 151.6 Z" style="stroke:none;fill:#FFFFFF;stroke-miterlimit:10;"/><path d="M 129.184 152.455 L 129.184 152.455 C 131.306 152.455 133.029 154.178 133.029 156.3 L 133.029 156.3 C 133.029 158.422 131.306 160.145 129.184 160.145 L 129.184 160.145 C 127.062 160.145 125.339 158.422 125.339 156.3 L 125.339 156.3 C 125.339 154.178 127.062 152.455 129.184 152.455 Z" style="stroke:none;fill:#FFFFFF;stroke-miterlimit:10;"/><path d="M 151.402 152.455 L 151.402 152.455 C 153.525 152.455 155.248 154.178 155.248 156.3 L 155.248 156.3 C 155.248 158.422 153.525 160.145 151.402 160.145 L 151.402 160.145 C 149.28 160.145 147.557 158.422 147.557 156.3 L 147.557 156.3 C 147.557 154.178 149.28 152.455 151.402 152.455 Z" style="stroke:none;fill:#FFFFFF;stroke-miterlimit:10;"/><path d="M 144.993 152.455 L 144.993 152.455 C 146.88 152.455 148.411 153.986 148.411 155.873 L 148.411 155.873 C 148.411 157.759 146.88 159.291 144.993 159.291 L 144.993 159.291 C 143.107 159.291 141.575 157.759 141.575 155.873 L 141.575 155.873 C 141.575 153.986 143.107 152.455 144.993 152.455 Z" style="stroke:none;fill:#FFFFFF;stroke-miterlimit:10;"/><path d="M 45.439 153.309 L 45.439 153.309 C 47.561 153.309 49.284 155.032 49.284 157.155 L 49.284 157.155 C 49.284 159.277 47.561 161 45.439 161 L 45.439 161 C 43.316 161 41.593 159.277 41.593 157.155 L 41.593 157.155 C 41.593 155.032 43.316 153.309 45.439 153.309 Z" style="stroke:none;fill:#FFFFFF;stroke-miterlimit:10;"/><rect x="33.902" y="149.036" width="4.273" height="1.709" transform="matrix(1,0,0,1,0,0)" fill="rgb(97,73,47)"/><rect x="52.702" y="149.891" width="3.418" height="2.564" transform="matrix(1,0,0,1,0,0)" fill="rgb(97,73,47)"/></g><path d="M 66.787 137.04 L 71.06 137.04 C 71.531 137.04 71.914 137.423 71.914 137.895 L 71.914 137.895 C 71.914 138.366 71.531 138.749 71.06 138.749 L 66.787 138.749 C 66.315 138.749 65.932 138.366 65.932 137.895 L 65.932 137.895 C 65.932 137.423 66.315 137.04 66.787 137.04 Z" style="stroke:none;fill:#EBEBEB;stroke-miterlimit:10;"/><path d="M 151.545 137.96 L 155.817 137.96 C 156.289 137.96 156.672 138.343 156.672 138.815 L 156.672 138.815 C 156.672 139.286 156.289 139.669 155.817 139.669 L 151.545 139.669 C 151.073 139.669 150.69 139.286 150.69 138.815 L 150.69 138.815 C 150.69 138.343 151.073 137.96 151.545 137.96 Z" style="stroke:none;fill:#EBEBEB;stroke-miterlimit:10;"/><path d=" M 36.181 131.945 L 24.787 149.036 L 47.575 149.036 L 36.181 131.945 Z " fill="rgb(99,185,88)" vector-effect="non-scaling-stroke" stroke-width="1" stroke="rgb(36,57,48)" stroke-linejoin="miter" stroke-linecap="square" stroke-miterlimit="3"/><path d="M 142.311 145.651 L 148.814 145.651 C 149.378 145.651 149.836 146.034 149.836 146.505 L 149.836 146.505 C 149.836 146.977 149.378 147.36 148.814 147.36 L 142.311 147.36 C 141.748 147.36 141.29 146.977 141.29 146.505 L 141.29 146.505 C 141.29 146.034 141.748 145.651 142.311 145.651 Z" style="stroke:none;fill:#EBEBEB;stroke-miterlimit:10;"/><path d="M 69.456 129.382 L 75.227 129.382 C 75.757 129.382 76.187 129.757 76.187 130.22 L 76.187 130.22 C 76.187 130.683 75.757 131.058 75.227 131.058 L 69.456 131.058 C 68.926 131.058 68.496 130.683 68.496 130.22 L 68.496 130.22 C 68.496 129.757 68.926 129.382 69.456 129.382 Z" style="stroke:none;fill:#EBEBEB;stroke-miterlimit:10;"/><path d=" M 138.302 138.355 L 130.611 149.891 L 145.993 149.891 L 138.302 138.355 Z " fill="rgb(99,185,88)" vector-effect="non-scaling-stroke" stroke-width="1" stroke="rgb(36,57,48)" stroke-linejoin="miter" stroke-linecap="square" stroke-miterlimit="3"/><path d=" M 19.945 138.119 L 12.254 149.656 L 27.636 149.656 L 19.945 138.119 Z " fill="rgb(99,185,88)" vector-effect="non-scaling-stroke" stroke-width="1" stroke="rgb(36,57,48)" stroke-linejoin="miter" stroke-linecap="square" stroke-miterlimit="3"/><path d=" M 138.302 136.624 L 132.534 145.276 L 144.07 145.276 L 138.302 136.624 Z " fill="rgb(99,185,88)" vector-effect="non-scaling-stroke" stroke-width="1" stroke="rgb(36,57,48)" stroke-linejoin="miter" stroke-linecap="square" stroke-miterlimit="3"/><path d=" M 19.945 136.389 L 14.176 145.041 L 25.713 145.041 L 19.945 136.389 Z " fill="rgb(99,185,88)" vector-effect="non-scaling-stroke" stroke-width="1" stroke="rgb(36,57,48)" stroke-linejoin="miter" stroke-linecap="square" stroke-miterlimit="3"/><path d=" M 36.181 129.382 L 27.636 142.2 L 44.726 142.2 L 36.181 129.382 Z " fill="rgb(99,185,88)" vector-effect="non-scaling-stroke" stroke-width="1" stroke="rgb(36,57,48)" stroke-linejoin="miter" stroke-linecap="square" stroke-miterlimit="3"/><path d=" M 138.302 134.894 L 134.457 140.662 L 142.148 140.662 L 138.302 134.894 Z " fill="rgb(99,185,88)" vector-effect="non-scaling-stroke" stroke-width="1" stroke="rgb(36,57,48)" stroke-linejoin="miter" stroke-linecap="square" stroke-miterlimit="3"/><path d=" M 19.945 134.658 L 16.099 140.427 L 23.79 140.427 L 19.945 134.658 Z " fill="rgb(99,185,88)" vector-effect="non-scaling-stroke" stroke-width="1" stroke="rgb(36,57,48)" stroke-linejoin="miter" stroke-linecap="square" stroke-miterlimit="3"/><path d="M 135.951 142.765 L 140.932 142.765 C 141.444 142.765 141.86 143.16 141.86 143.647 L 141.86 143.647 C 141.86 144.133 141.444 144.528 140.932 144.528 L 135.951 144.528 C 135.439 144.528 135.023 144.133 135.023 143.647 L 135.023 143.647 C 135.023 143.16 135.439 142.765 135.951 142.765 Z" style="stroke:none;fill:#EBEBEB;stroke-miterlimit:10;"/><path d="M 18.027 143.674 L 23.571 143.674 C 23.928 143.674 24.217 143.865 24.217 144.101 L 24.217 144.101 C 24.217 144.337 23.928 144.528 23.571 144.528 L 18.027 144.528 C 17.67 144.528 17.381 144.337 17.381 144.101 L 17.381 144.101 C 17.381 143.865 17.67 143.674 18.027 143.674 Z" style="stroke:none;fill:#EBEBEB;stroke-miterlimit:10;"/><path d="M 137.654 138.215 L 138.823 138.215 C 139.208 138.215 139.52 138.528 139.52 138.913 L 139.52 139.035 C 139.52 139.42 139.208 139.732 138.823 139.732 L 137.654 139.732 C 137.269 139.732 136.957 139.42 136.957 139.035 L 136.957 138.913 C 136.957 138.528 137.269 138.215 137.654 138.215 Z" style="stroke:none;fill:#EBEBEB;stroke-miterlimit:10;"/><path d="M 19.486 138.547 L 21.258 138.547 C 21.476 138.547 21.654 138.724 21.654 138.942 L 21.654 139.006 C 21.654 139.224 21.476 139.401 21.258 139.401 L 19.486 139.401 C 19.267 139.401 19.09 139.224 19.09 139.006 L 19.09 138.942 C 19.09 138.724 19.267 138.547 19.486 138.547 Z" style="stroke:none;fill:#EBEBEB;stroke-miterlimit:10;"/><path d=" M 36.181 126.818 L 30.484 135.364 L 41.878 135.364 L 36.181 126.818 Z " fill="rgb(99,185,88)" vector-effect="non-scaling-stroke" stroke-width="1" stroke="rgb(36,57,48)" stroke-linejoin="miter" stroke-linecap="square" stroke-miterlimit="3"/><path d=" M 36.181 125.109 L 32.763 130.236 L 39.599 130.236 L 36.181 125.109 Z " fill="rgb(255,255,255)" vector-effect="non-scaling-stroke" stroke-width="1" stroke="rgb(36,57,48)" stroke-linejoin="miter" stroke-linecap="square" stroke-miterlimit="3"/><path d="M 36.466 139.636 L 40.739 139.636 C 41.21 139.636 41.593 140.019 41.593 140.491 L 41.593 140.491 C 41.593 140.963 41.21 141.345 40.739 141.345 L 36.466 141.345 C 35.994 141.345 35.611 140.963 35.611 140.491 L 35.611 140.491 C 35.611 140.019 35.994 139.636 36.466 139.636 Z" style="stroke:none;fill:#EBEBEB;stroke-miterlimit:10;"/><path d=" M 54.411 138.355 L 46.72 149.891 L 62.102 149.891 L 54.411 138.355 Z " fill="rgb(99,185,88)" vector-effect="non-scaling-stroke" stroke-width="1" stroke="rgb(36,57,48)" stroke-linejoin="miter" stroke-linecap="square" stroke-miterlimit="3"/><path d=" M 54.411 136.624 L 48.643 145.276 L 60.179 145.276 L 54.411 136.624 Z " fill="rgb(99,185,88)" vector-effect="non-scaling-stroke" stroke-width="1" stroke="rgb(36,57,48)" stroke-linejoin="miter" stroke-linecap="square" stroke-miterlimit="3"/><path d=" M 54.411 134.894 L 50.566 140.662 L 58.257 140.662 L 54.411 134.894 Z " fill="rgb(99,185,88)" vector-effect="non-scaling-stroke" stroke-width="1" stroke="rgb(36,57,48)" stroke-linejoin="miter" stroke-linecap="square" stroke-miterlimit="3"/><g><rect x="107.39" y="127.405" width="5.127" height="5.982" transform="matrix(1,0,0,1,0,0)" fill="rgb(199,65,41)" vector-effect="non-scaling-stroke" stroke-width="1" stroke="rgb(104,31,18)" stroke-linejoin="miter" stroke-linecap="square" stroke-miterlimit="2"/><rect x="105.681" y="125.303" width="6.857" height="2.102" transform="matrix(1,0,0,1,0,0)" fill="rgb(255,255,255)" vector-effect="non-scaling-stroke" stroke-width="1" stroke="rgb(74,74,74)" stroke-linejoin="miter" stroke-linecap="square" stroke-miterlimit="2"/><path d=" M 127.045 150.478 L 108.245 150.478 L 108.245 139.368 L 117.645 130.823 L 127.045 140.223 L 127.045 150.478 Z " fill="rgb(199,65,41)" vector-effect="non-scaling-stroke" stroke-width="1" stroke="rgb(104,31,18)" stroke-linejoin="miter" stroke-linecap="square" stroke-miterlimit="3"/><rect x="110.829" y="139.368" width="3.418" height="3.418" transform="matrix(1,0,0,1,0,0)" fill="rgb(253,205,36)" vector-effect="non-scaling-stroke" stroke-width="1" stroke="rgb(104,31,18)" stroke-linejoin="miter" stroke-linecap="square" stroke-miterlimit="2"/><rect x="120.229" y="139.368" width="3.418" height="3.418" transform="matrix(1,0,0,1,0,0)" fill="rgb(253,205,36)" vector-effect="non-scaling-stroke" stroke-width="1" stroke="rgb(104,31,18)" stroke-linejoin="miter" stroke-linecap="square" stroke-miterlimit="2"/><path d=" M 103.972 135.95 L 115.936 123.987 C 116.933 123.2 118.081 123.209 119.354 123.987 L 131.318 135.95 C 131.531 139.155 130.115 140.588 127.045 140.223 L 117.645 130.823 L 108.245 139.368 C 104.969 140.508 103.553 139.377 103.972 135.95 Z " fill="rgb(255,255,255)" vector-effect="non-scaling-stroke" stroke-width="1" stroke="rgb(74,74,74)" stroke-linejoin="miter" stroke-linecap="square" stroke-miterlimit="3"/></g><g><circle vector-effect="non-scaling-stroke" cx="93.2446205111152" cy="146.71212121212125" r="6.409090909090921" fill="rgb(244,250,255)"/><circle vector-effect="non-scaling-stroke" cx="93.67189323838797" cy="142.0121212121212" r="3.4181818181818215" fill="rgb(165,71,62)"/><circle vector-effect="non-scaling-stroke" cx="93.67189323838792" cy="139.44848484848478" r="4.2727272727272805" fill="rgb(244,250,255)"/><circle vector-effect="non-scaling-stroke" cx="91.96280232929706" cy="137.73939393939392" r="0.8545454545454589" fill="rgb(104,104,104)"/><circle vector-effect="non-scaling-stroke" cx="95.3809841474789" cy="137.73939393939392" r="0.8545454545454589" fill="rgb(104,104,104)"/><circle vector-effect="non-scaling-stroke" cx="93.67189323838797" cy="139.44848484848487" r="0.8545454545454589" fill="rgb(255,180,82)"/><path d=" M 91.52 141 C 93.208 142.25 94.302 142.156 95.52 141" fill="none" vector-effect="non-scaling-stroke" stroke-width="0.5" stroke="rgb(104,104,104)" stroke-linejoin="round" stroke-linecap="round" stroke-miterlimit="3"/><path d=" M 88.71 146.004 C 89.109 146.155 89.138 145.236 88.725 144.856 L 86.063 142.101 C 85.498 141.684 85.196 142.83 86.063 143.479 L 88.71 146.004 Z " fill="rgb(202,171,78)"/><path d=" M 98.52 146.015 C 98.115 146.132 97.933 146.032 97.945 145.691 L 101.52 142.196 C 102.208 141.636 103.005 142.769 101.52 143.724 L 98.52 146.015 Z " fill="rgb(202,171,78)"/><path d=" M 94.526 144.576 L 95.381 149.703 L 97.09 146.285 L 95.381 143.721 L 94.526 144.576 Z " fill="rgb(165,71,62)"/></g><path d="M 104.848 114 L 115.102 114 C 115.574 114 115.957 114.383 115.957 114.855 L 115.957 114.855 C 115.957 115.326 115.574 115.709 115.102 115.709 L 104.848 115.709 C 104.376 115.709 103.993 115.326 103.993 114.855 L 103.993 114.855 C 103.993 114.383 104.376 114 104.848 114 Z" style="stroke:none;fill:#D1D6D7;stroke-miterlimit:10;"/><path d="M 102.284 117.418 L 112.539 117.418 C 113.01 117.418 113.393 117.801 113.393 118.273 L 113.393 118.273 C 113.393 118.744 113.01 119.127 112.539 119.127 L 102.284 119.127 C 101.812 119.127 101.429 118.744 101.429 118.273 L 101.429 118.273 C 101.429 117.801 101.812 117.418 102.284 117.418 Z" style="stroke:none;fill:#D1D6D7;stroke-miterlimit:10;"/><path d="M 104.848 119.982 L 115.102 119.982 C 115.574 119.982 115.957 120.365 115.957 120.836 L 115.957 120.836 C 115.957 121.308 115.574 121.691 115.102 121.691 L 104.848 121.691 C 104.376 121.691 103.993 121.308 103.993 120.836 L 103.993 120.836 C 103.993 120.365 104.376 119.982 104.848 119.982 Z" style="stroke:none;fill:#D1D6D7;stroke-miterlimit:10;"/><path d="M 107.868 114.855 L 108.664 114.855 C 108.916 114.855 109.12 115.059 109.12 115.311 L 109.12 117.816 C 109.12 118.068 108.916 118.273 108.664 118.273 L 107.868 118.273 C 107.616 118.273 107.411 118.068 107.411 117.816 L 107.411 115.311 C 107.411 115.059 107.616 114.855 107.868 114.855 Z" style="stroke:none;fill:#D1D6D7;stroke-miterlimit:10;"/><path d="M 108.661 120.836 L 109.579 120.836 C 109.798 120.836 109.975 121.014 109.975 121.232 L 109.975 123.004 C 109.975 123.223 109.798 123.4 109.579 123.4 L 108.661 123.4 C 108.443 123.4 108.266 123.223 108.266 123.004 L 108.266 121.232 C 108.266 121.014 108.443 120.836 108.661 120.836 Z" style="stroke:none;fill:#D1D6D7;stroke-miterlimit:10;"/><path d="M 110.371 118.273 L 111.288 118.273 C 111.507 118.273 111.684 118.45 111.684 118.668 L 111.684 120.441 C 111.684 120.659 111.507 120.836 111.288 120.836 L 110.371 120.836 C 110.152 120.836 109.975 120.659 109.975 120.441 L 109.975 118.668 C 109.975 118.45 110.152 118.273 110.371 118.273 Z" style="stroke:none;fill:#D1D6D7;stroke-miterlimit:10;"/></g><path d="M 158.43 101.717 L 158.43 101.717 C 160.317 101.717 161.848 103.249 161.848 105.135 L 161.848 105.135 C 161.848 107.022 160.317 108.554 158.43 108.554 L 158.43 108.554 C 156.544 108.554 155.012 107.022 155.012 105.135 L 155.012 105.135 C 155.012 103.249 156.544 101.717 158.43 101.717 Z" style="stroke:none;fill:#8CD5FF;stroke-miterlimit:10;"/><path d="M 13.412 95.415 L 13.412 95.415 C 14.608 95.415 15.579 96.386 15.579 97.582 L 15.579 97.582 C 15.579 98.778 14.608 99.748 13.412 99.748 L 13.412 99.748 C 12.216 99.748 11.245 98.778 11.245 97.582 L 11.245 97.582 C 11.245 96.386 12.216 95.415 13.412 95.415 Z" style="stroke:none;fill:#B1FFCE;stroke-miterlimit:10;"/><g><path d="M 39.797 65.497 L 39.797 65.497 C 41.683 65.497 43.215 67.029 43.215 68.915 L 43.215 68.915 C 43.215 70.802 41.683 72.333 39.797 72.333 L 39.797 72.333 C 37.91 72.333 36.378 70.802 36.378 68.915 L 36.378 68.915 C 36.378 67.029 37.91 65.497 39.797 65.497 Z" style="stroke:none;fill:#FF8C82;stroke-miterlimit:10;"/><path d="M 24.027 13.667 L 24.027 13.667 C 25.914 13.667 27.445 15.198 27.445 17.085 L 27.445 17.085 C 27.445 18.971 25.914 20.503 24.027 20.503 L 24.027 20.503 C 22.141 20.503 20.609 18.971 20.609 17.085 L 20.609 17.085 C 20.609 15.198 22.141 13.667 24.027 13.667 Z" style="stroke:none;fill:#FFF394;stroke-miterlimit:10;"/><path d="M 51.541 115.282 L 51.541 115.282 C 53.427 115.282 54.959 116.813 54.959 118.7 L 54.959 118.7 C 54.959 120.587 53.427 122.118 51.541 122.118 L 51.541 122.118 C 49.654 122.118 48.123 120.587 48.123 118.7 L 48.123 118.7 C 48.123 116.813 49.654 115.282 51.541 115.282 Z" style="stroke:none;fill:#E4C6FA;stroke-miterlimit:10;"/><path d="M 134.364 32.076 L 134.364 32.076 C 136.25 32.076 137.782 33.607 137.782 35.494 L 137.782 35.494 C 137.782 37.38 136.25 38.912 134.364 38.912 L 134.364 38.912 C 132.477 38.912 130.945 37.38 130.945 35.494 L 130.945 35.494 C 130.945 33.607 132.477 32.076 134.364 32.076 Z" style="stroke:none;fill:#FFC27D;stroke-miterlimit:10;"/><path d="M 44.776 28.658 L 44.776 28.658 C 46.662 28.658 48.194 30.189 48.194 32.076 L 48.194 32.076 C 48.194 33.962 46.662 35.494 44.776 35.494 L 44.776 35.494 C 42.889 35.494 41.358 33.962 41.358 32.076 L 41.358 32.076 C 41.358 30.189 42.889 28.658 44.776 28.658 Z" style="stroke:none;fill:#95A3AB;stroke-miterlimit:10;"/><path d="M 153.985 68 L 153.985 68 C 155.181 68 156.152 68.971 156.152 70.167 L 156.152 70.167 C 156.152 71.362 155.181 72.333 153.985 72.333 L 153.985 72.333 C 152.789 72.333 151.818 71.362 151.818 70.167 L 151.818 70.167 C 151.818 68.971 152.789 68 153.985 68 Z" style="stroke:none;fill:#FFFFFF;stroke-miterlimit:10;"/><path d="M 110.309 40.164 L 110.309 40.164 C 111.505 40.164 112.476 41.134 112.476 42.33 L 112.476 42.33 C 112.476 43.526 111.505 44.497 110.309 44.497 L 110.309 44.497 C 109.113 44.497 108.142 43.526 108.142 42.33 L 108.142 42.33 C 108.142 41.134 109.113 40.164 110.309 40.164 Z" style="stroke:none;fill:#FFF5D0;stroke-miterlimit:10;"/><path d="M 121.088 13 L 121.088 13 C 122.284 13 123.255 13.971 123.255 15.167 L 123.255 15.167 C 123.255 16.362 122.284 17.333 121.088 17.333 L 121.088 17.333 C 119.892 17.333 118.921 16.362 118.921 15.167 L 118.921 15.167 C 118.921 13.971 119.892 13 121.088 13 Z" style="stroke:none;fill:#D4D4FF;stroke-miterlimit:10;"/><path d="M 78.058 8.667 L 78.058 8.667 C 79.253 8.667 80.224 9.638 80.224 10.833 L 80.224 10.833 C 80.224 12.029 79.253 13 78.058 13 L 78.058 13 C 76.862 13 75.891 12.029 75.891 10.833 L 75.891 10.833 C 75.891 9.638 76.862 8.667 78.058 8.667 Z" style="stroke:none;fill:#D1FF82;stroke-miterlimit:10;"/><path d="M 85.239 117.325 L 85.239 117.325 C 86.435 117.325 87.406 118.296 87.406 119.491 L 87.406 119.491 C 87.406 120.687 86.435 121.658 85.239 121.658 L 85.239 121.658 C 84.044 121.658 83.073 120.687 83.073 119.491 L 83.073 119.491 C 83.073 118.296 84.044 117.325 85.239 117.325 Z" style="stroke:none;fill:#E4C6FA;stroke-miterlimit:10;"/><path d="M 16.861 48.167 L 16.861 48.167 C 18.056 48.167 19.027 49.138 19.027 50.333 L 19.027 50.333 C 19.027 51.529 18.056 52.5 16.861 52.5 L 16.861 52.5 C 15.665 52.5 14.694 51.529 14.694 50.333 L 14.694 50.333 C 14.694 49.138 15.665 48.167 16.861 48.167 Z" style="stroke:none;fill:#FFA8BE;stroke-miterlimit:10;"/><path d="M 121.088 71.418 L 121.088 71.418 C 122.284 71.418 123.255 72.389 123.255 73.585 L 123.255 73.585 C 123.255 74.781 122.284 75.752 121.088 75.752 L 121.088 75.752 C 119.892 75.752 118.921 74.781 118.921 73.585 L 118.921 73.585 C 118.921 72.389 119.892 71.418 121.088 71.418 Z" style="stroke:none;fill:#F0F991;stroke-miterlimit:10;"/><path d="M 160.597 29.909 L 160.597 29.909 C 161.793 29.909 162.764 30.88 162.764 32.076 L 162.764 32.076 C 162.764 33.272 161.793 34.242 160.597 34.242 L 160.597 34.242 C 159.401 34.242 158.43 33.272 158.43 32.076 L 158.43 32.076 C 158.43 30.88 159.401 29.909 160.597 29.909 Z" style="stroke:none;fill:#D2FFE8;stroke-miterlimit:10;"/><path d="M 63.245 46 L 63.245 46 C 64.441 46 65.412 46.971 65.412 48.167 L 65.412 48.167 C 65.412 49.362 64.441 50.333 63.245 50.333 L 63.245 50.333 C 62.05 50.333 61.079 49.362 61.079 48.167 L 61.079 48.167 C 61.079 46.971 62.05 46 63.245 46 Z" style="stroke:none;fill:#CBEFFF;stroke-miterlimit:10;"/></g><g filter="url(#jo2gMYo1LT2Yn398fqQ8WC5IOY57iNzV)"><text transform="matrix(0.704,0,0,0.704,60.295,32.102)" style="font-family:'Open Sans';font-weight:600;font-size:16px;font-style:normal;font-variant-ligatures:none;fill:#FFFFFF;stroke:none;">P</text><text transform="matrix(0.704,0,0,0.704,66.003,32.102)" style="font-family:'Open Sans';font-weight:600;font-size:16px;font-style:normal;font-variant-ligatures:none;fill:#FFFFFF;stroke:none;">o</text><text transform="matrix(0.704,0,0,0.704,72.104,32.102)" style="font-family:'Open Sans';font-weight:600;font-size:16px;font-style:normal;font-variant-ligatures:none;fill:#FFFFFF;stroke:none;">w</text><text transform="matrix(0.704,0,0,0.704,80.282,32.102)" style="font-family:'Open Sans';font-weight:600;font-size:16px;font-style:normal;font-variant-ligatures:none;fill:#FFFFFF;stroke:none;">e</text><text transform="matrix(0.704,0,0,0.704,85.927,32.102)" style="font-family:'Open Sans';font-weight:600;font-size:16px;font-style:normal;font-variant-ligatures:none;fill:#FFFFFF;stroke:none;">r</text><text transform="matrix(0.704,0,0,0.704,89.495,32.102)" style="font-family:'Open Sans';font-weight:600;font-size:16px;font-style:normal;font-variant-ligatures:none;fill:#FFFFFF;stroke:none;">ed </text><text transform="matrix(0.704,0,0,0.704,103.873,32.102)" style="font-family:'Open Sans';font-weight:600;font-size:16px;font-style:normal;font-variant-ligatures:none;fill:#FFFFFF;stroke:none;">b</text><text transform="matrix(0.704,0,0,0.704,110.2,32.102)" style="font-family:'Open Sans';font-weight:600;font-size:16px;font-style:normal;font-variant-ligatures:none;fill:#FFFFFF;stroke:none;">y</text><g><g><g><path d=" M 65.649 77.263 L 65.649 53.525 L 79.176 53.525 L 79.176 65.348 L 95.039 65.348 L 95.039 53.384 L 107.447 53.384 C 108.151 53.384 108.686 53.384 108.686 54.32 L 108.686 77.263 L 65.649 77.263 Z " fill="rgb(255,255,255)"/></g><g><rect x="79.31" y="34.452" width="15.701" height="11.866" transform="matrix(1,0,0,1,0,0)" fill="rgb(255,255,255)"/></g><g><path d=" M 33.606 84.745 L 37.294 84.745 L 37.294 96.547 C 37.329 99.186 38.828 100.706 41.292 100.685 C 43.755 100.664 45.113 99.207 45.141 96.582 C 45.19 92.711 45.141 88.841 45.141 84.829 L 48.935 84.829 L 48.935 91.958 C 48.935 93.774 49.005 95.597 48.85 97.377 C 48.519 101.48 45.683 104.183 41.686 104.345 C 37.463 104.549 34.05 102.114 33.691 98.011 C 33.325 93.612 33.606 89.207 33.606 84.745 Z " fill="rgb(255,255,255)"/></g><g><path d=" M 81.133 103.078 L 81.133 108.962 L 77.487 108.962 L 77.487 90.586 C 78.81 90.874 80.302 89.664 81.21 91.557 C 83.701 89.84 87.122 89.572 89.522 92.176 C 91.689 94.527 91.767 99.214 89.789 101.875 C 87.903 104.415 84.968 104.83 81.133 103.078 Z  M 87.678 97.209 C 87.678 95.041 86.326 93.528 84.377 93.507 C 82.428 93.486 81.126 95.027 81.097 97.23 C 81.069 99.432 82.435 101.016 84.476 100.981 C 86.517 100.946 87.678 99.461 87.678 97.209 Z " fill="rgb(255,255,255)"/></g><g><path d=" M 126.322 103.859 L 126.322 84.801 L 129.841 84.801 L 129.841 90.966 C 131.296 90.638 132.773 90.424 134.261 90.326 C 136.302 90.326 137.935 91.613 138.111 93.535 C 138.413 96.941 138.195 100.397 138.195 103.894 L 134.845 103.894 L 134.845 96.73 C 134.845 94.513 134.05 93.478 132.431 93.478 C 130.813 93.478 129.898 94.612 129.884 96.836 L 129.884 103.873 L 126.322 103.859 Z " fill="rgb(255,255,255)"/></g><g><path d=" M 108.27 91.698 C 109.009 89.587 110.628 90.994 111.895 90.431 L 111.895 103.747 C 109.284 104.317 108.65 104.141 108.27 102.663 C 106.863 103.916 105.244 104.697 103.435 104.07 C 102.122 103.679 100.917 102.987 99.917 102.051 C 97.573 99.552 97.707 94.647 99.917 92.148 C 101.986 89.882 105.223 89.664 108.292 91.691 L 108.27 91.698 Z  M 105.139 100.981 C 107.074 100.981 108.432 99.44 108.439 97.265 C 108.446 95.09 107.032 93.478 105.195 93.478 C 103.161 93.478 101.817 95.006 101.845 97.265 C 101.873 99.524 103.161 100.988 105.139 100.981 Z " fill="rgb(255,255,255)"/></g><g><path d=" M 54.811 103.887 L 51.292 103.887 L 51.292 90.755 C 53.946 90.304 54.438 90.438 54.882 91.656 C 55.552 91.215 56.259 90.832 56.993 90.509 C 60.181 89.46 63.116 91.367 63.292 94.731 C 63.447 97.722 63.327 100.727 63.327 103.88 L 59.738 103.88 L 59.738 96.272 C 59.625 94.379 58.816 93.457 57.281 93.457 C 55.747 93.457 54.867 94.443 54.79 96.23 C 54.713 98.194 54.79 100.164 54.755 102.135 L 54.811 103.887 Z " fill="rgb(255,255,255)"/></g><g><path d=" M 75.242 94.379 C 73.884 94.274 72.532 94.865 71.54 93.38 C 71.28 92.993 70.132 93.084 69.429 93.19 C 69.133 93.19 68.725 93.894 68.725 94.224 C 68.797 94.662 69.078 95.038 69.478 95.231 C 70.393 95.569 71.378 95.688 72.293 95.935 C 74.651 96.638 75.812 98.046 75.77 100.073 C 75.728 102.1 74.214 103.676 71.983 104.169 C 68.465 104.964 65.382 103.12 65.002 99.841 C 66.367 99.841 67.775 99.179 68.795 100.861 C 69.273 101.324 69.938 101.542 70.597 101.452 C 71.174 101.375 71.73 100.784 72.293 100.418 C 71.857 99.925 71.526 99.249 70.984 99.01 C 70.156 98.721 69.307 98.497 68.443 98.342 C 66.501 97.75 65.431 96.477 65.34 94.724 C 65.275 92.963 66.31 91.348 67.937 90.67 C 71.709 89.038 75.495 91.438 75.207 94.372 L 75.242 94.379 Z " fill="rgb(255,255,255)"/></g><g><path d=" M 124.5 94.316 C 122.698 94.316 121.347 94.893 120.333 93.373 C 120.08 93 119.066 92.93 118.482 93.056 C 117.99 93.276 117.638 93.723 117.539 94.253 C 117.497 94.562 118.032 95.146 118.433 95.301 C 119.299 95.625 120.242 95.717 121.136 96.005 C 123.374 96.646 124.654 98.116 124.598 100.017 C 124.492 102.114 122.956 103.863 120.889 104.239 C 117.272 105.112 114.091 103.198 113.851 99.904 C 115.217 99.904 116.667 99.32 117.638 100.988 C 117.912 101.424 118.947 101.614 119.594 101.53 C 120.136 101.466 120.601 100.826 121.1 100.446 C 120.706 99.988 120.397 99.327 119.883 99.102 C 118.954 98.701 117.877 98.616 116.913 98.257 C 113.739 97.103 113.126 93.528 115.695 91.367 C 117.553 89.805 121.009 89.741 122.733 91.459 C 123.437 92.162 123.81 93.19 124.5 94.358 L 124.5 94.316 Z " fill="rgb(255,255,255)"/></g><g><rect x="92.998" y="84.745" width="3.427" height="19.101" transform="matrix(1,0,0,1,0,0)" fill="rgb(255,255,255)"/></g></g></g></g><defs><filter id="jo2gMYo1LT2Yn398fqQ8WC5IOY57iNzV" x="-200%" y="-200%" width="400%" height="400%" filterUnits="objectBoundingBox" color-interpolation-filters="sRGB"><feGaussianBlur xmlns="http://www.w3.org/2000/svg" in="SourceGraphic" stdDeviation="4.293609062839028"/><feOffset xmlns="http://www.w3.org/2000/svg" dx="0" dy="0" result="pf_100_offsetBlur"/><feFlood xmlns="http://www.w3.org/2000/svg" flood-color="#63B958" flood-opacity="0.65"/><feComposite xmlns="http://www.w3.org/2000/svg" in2="pf_100_offsetBlur" operator="in" result="pf_100_dropShadow"/><feBlend xmlns="http://www.w3.org/2000/svg" in="SourceGraphic" in2="pf_100_dropShadow" mode="normal"/></filter></defs></svg>