<?xml version="1.0" encoding="UTF-8" standalone="no"?><!-- Generator: Gravit.io --><svg xmlns="http://www.w3.org/2000/svg" xmlns:xlink="http://www.w3.org/1999/xlink" style="isolation:isolate" viewBox="0 0 171.774 167.08" width="171.774pt" height="167.08pt"><g><linearGradient id="_lgradient_4" x1="-0.03459409594095941" y1="0.5" x2="1.0345940959409594" y2="0.5"><stop offset="14.000000000000002%" stop-opacity="1" style="stop-color:rgb(234,0,50)"/><stop offset="86%" stop-opacity="1" style="stop-color:rgb(0,189,214)"/></linearGradient><circle vector-effect="non-scaling-stroke" cx="88.77908481240297" cy="50.85293066539958" r="39.693614216149214" fill="none" stroke-width="3" stroke="url(#_lgradient_4)" stroke-linejoin="miter" stroke-linecap="round" stroke-miterlimit="10"/><path d=" M 30.498 140.376 C 31.625 141.591 32.97 142.584 34.463 143.304 C 34.729 143.433 38.273 145.14 38.934 144.222 C 39.595 143.304 37.667 141.065 36.272 139.733 C 35.274 138.792 34.13 138.02 32.884 137.448 C 39.595 135.75 40.962 134.795 40.907 134.226 C 40.825 133.482 38.153 133.106 36.813 133.051 C 35.121 132.974 33.434 133.288 31.884 133.969 C 37.391 128.709 38.208 127.029 37.832 126.496 C 37.346 125.799 34.628 126.772 33.352 127.414 C 32.019 128.049 30.826 128.945 29.846 130.049 C 33.004 123.945 33.123 122.265 32.6 121.888 C 31.893 121.365 29.635 123.164 28.753 123.972 C 27.474 125.148 26.482 126.602 25.853 128.222 C 27.129 121.797 26.862 120.181 26.302 119.961 C 25.743 119.74 24.228 121.567 23.549 123.045 C 22.874 124.662 22.755 126.457 23.209 128.149 C 19.932 122.301 18.867 121.328 18.5 121.484 C 18.133 121.64 18.105 123.146 20.262 130.04 C 18.353 129.058 13.277 126.524 12.799 127.286 C 12.322 128.048 16.618 131.646 18.307 133.014 C 16.214 133.143 10.174 133.574 10.128 134.519 C 10.082 135.465 16.031 136.447 18.105 136.814 C 15.498 138.063 11.074 140.293 11.34 141.074 C 11.606 141.854 16.774 140.789 19.601 140.156 C 15.388 148.133 15.195 149.666 15.535 149.877 C 15.874 150.088 17.169 149.308 22.585 142.423 C 22.539 149.712 23.2 150.933 23.677 150.997 C 24.65 151.135 26.119 146.802 27.45 141.973 C 27.275 143.896 27.671 145.828 28.588 147.527 C 29.506 149.161 31.342 151.107 32.177 150.721 C 33.013 150.336 32.691 147.472 32.517 146.306 C 32.212 144.223 31.527 142.213 30.498 140.376 L 30.498 140.376 Z " fill="rgb(251,194,0)"/><circle vector-effect="non-scaling-stroke" cx="25.522220546978204" cy="135.8137850978752" r="4.920263690818636" fill="rgb(97,0,49)"/><circle vector-effect="non-scaling-stroke" cx="25.522220546978208" cy="135.8137850978756" r="3.212858753333066" fill="rgb(227,0,64)"/><path d=" M 135.562 56.43 C 137.445 57.954 139.596 59.112 141.905 59.844 C 142.308 59.965 147.792 61.658 148.625 60.247 C 149.458 58.836 146.139 55.933 143.84 54.293 C 142.201 53.14 140.386 52.26 138.465 51.686 C 147.872 47.843 149.606 46.176 149.404 45.37 C 149.122 44.295 145.238 44.295 143.236 44.51 C 140.764 44.77 138.386 45.598 136.288 46.929 C 143.222 38.166 144.002 35.573 143.357 34.834 C 142.51 33.92 138.774 35.895 137.054 37.024 C 135.253 38.212 133.712 39.753 132.525 41.553 C 135.817 32.065 135.643 29.606 134.836 29.162 C 133.707 28.558 130.805 31.622 129.703 32.979 C 128.103 34.94 126.969 37.237 126.383 39.699 C 126.907 30.184 126.182 27.859 125.335 27.671 C 124.287 27.456 122.647 30.426 122.042 32.697 C 121.393 35.176 121.592 37.802 122.607 40.155 C 116.653 32.374 114.906 31.178 114.409 31.487 C 113.912 31.796 114.06 34.068 118.656 43.596 C 115.686 42.574 107.81 39.967 107.259 41.123 C 106.708 42.279 113.71 46.647 116.398 48.286 C 113.401 48.904 104.746 50.772 104.881 52.143 C 105.015 53.514 113.764 53.742 116.841 53.796 C 113.32 56.148 107.434 60.287 107.931 61.362 C 108.429 62.437 115.739 59.817 119.65 58.312 C 115.202 70.729 115.242 72.987 115.766 73.229 C 116.29 73.471 118.024 72.06 124.435 60.973 C 125.873 71.536 127.122 73.162 127.808 73.162 C 129.232 73.162 130.496 66.577 131.383 59.32 C 131.538 62.141 132.524 64.853 134.218 67.114 C 135.885 69.291 138.868 71.737 140.064 70.998 C 141.26 70.259 140.064 66.187 139.648 64.52 C 138.779 61.602 137.395 58.862 135.562 56.43 Z " fill="rgb(0,189,214)"/><circle vector-effect="non-scaling-stroke" cx="127.37768382768306" cy="50.85293066539942" r="7.189878219012449" fill="rgb(239,161,36)"/><circle vector-effect="non-scaling-stroke" cx="127.37768382768337" cy="50.852930665399576" r="4.703658647952068" fill="rgb(227,0,64)"/><path d=" M 140.235 123.902 C 140.45 121.571 142.001 120.258 142.985 120.439 C 143.8 120.586 144.536 121.82 144.626 123.37 C 144.454 122.413 144.943 121.458 145.821 121.038 C 146.698 120.618 147.748 120.836 148.386 121.57 C 149.024 122.305 149.093 123.375 148.554 124.185 C 149.821 122.057 151.632 121.265 152.39 121.718 C 153.149 122.171 153.182 123.687 152.571 125.373 C 153.816 124.332 155.231 124.14 155.774 124.649 C 156.317 125.158 156.227 126.913 154.767 128.293 C 155.906 127.417 157.539 127.624 158.422 128.757 C 158.741 130.115 157.932 131.483 156.589 131.858 C 158.705 131.485 160.279 131.949 160.426 132.594 C 160.573 133.239 159.52 134.201 157.868 134.857 C 159.701 134.665 161.173 135.106 161.342 135.763 C 161.512 136.419 160.312 137.743 158.14 138.411 C 160.55 139.452 161.874 140.957 161.614 141.704 C 161.354 142.451 159.554 142.723 157.325 142.248 C 158.25 142.776 158.638 143.911 158.23 144.896 C 157.887 145.403 157.344 145.74 156.738 145.824 C 156.132 145.908 155.518 145.731 155.05 145.337 C 155.597 145.638 155.996 146.15 156.152 146.755 C 156.309 147.359 156.209 148.001 155.876 148.529 C 154.987 149.197 153.745 149.12 152.945 148.348 C 153.683 149.169 153.721 150.403 153.035 151.268 C 152.502 151.633 151.839 151.752 151.211 151.597 C 150.584 151.441 150.054 151.025 149.753 150.453 C 150.104 151.3 149.839 152.276 149.108 152.829 C 148.563 153.039 147.955 153.008 147.433 152.746 C 146.911 152.483 146.525 152.012 146.369 151.449 C 146.498 152.323 146.038 153.179 145.238 153.554 C 144.377 153.791 143.099 152.954 142.974 151.449 C 142.979 152.362 142.315 153.142 141.412 153.282 C 140.898 153.204 140.44 152.916 140.146 152.487 C 139.852 152.058 139.749 151.526 139.862 151.019 C 138.73 152.682 137.1 153.124 136.467 152.66 C 135.833 152.196 135.912 150.962 136.568 149.649 C 135.188 150.781 133.558 150.566 133.094 149.83 C 132.797 149 133.009 148.072 133.637 147.454 C 133.105 147.765 132.466 147.835 131.879 147.647 C 131.292 147.46 130.812 147.031 130.559 146.469 C 130.485 145.461 131.134 144.541 132.109 144.273 C 130.231 144.489 128.861 144.273 128.714 143.719 C 128.567 143.164 130.412 142.055 130.536 141.987 C 128.703 141.557 127.469 140.856 127.526 140.437 C 127.582 140.018 128.748 139.679 130.151 139.52 C 127.888 138.615 126.858 136.917 127.22 136.046 C 127.515 135.355 128.771 135.016 130.151 135.14 C 128.816 134.688 128.171 133.488 128.409 132.764 C 129.066 131.702 130.458 131.373 131.521 132.028 C 130.106 131.066 129.744 129.482 130.242 128.746 C 130.74 128.01 132.596 127.614 134.079 128.927 C 132.947 126.969 132.607 125.328 133.071 125 C 133.535 124.672 134.916 125.543 136.353 127.094 C 134.995 125.407 135.505 123.246 136.636 122.623 C 137.987 122.122 139.503 122.661 140.235 123.902 L 140.235 123.902 Z " fill="rgb(255,150,0)"/><circle vector-effect="non-scaling-stroke" cx="143.91348211367165" cy="137.42643873448378" r="10.887379579572098" fill="rgb(75,0,86)"/><circle vector-effect="non-scaling-stroke" cx="143.9134821136713" cy="137.4264387344836" r="8.431494580853666" fill="rgb(219,0,64)"/><circle vector-effect="non-scaling-stroke" cx="143.91348211367097" cy="137.17745500189466" r="5.941657254963985" fill="rgb(55,0,93)"/><path d=" M 142.948 139.925 C 141.427 139.392 140.626 137.724 141.159 136.203 C 141.693 134.683 143.36 133.881 144.881 134.415 C 146.402 134.948 147.203 136.616 146.67 138.136 C 146.136 139.657 144.469 140.459 142.948 139.925 Z " fill="none" vector-effect="non-scaling-stroke" stroke-width="1" stroke="rgb(255,255,255)" stroke-linejoin="miter" stroke-linecap="round" stroke-miterlimit="10"/><path d=" M 57.037 32.266 C 59.442 30.587 61.955 31.003 62.587 32.092 C 63.219 33.18 62.587 34.699 61.109 36.029 C 61.779 35.499 62.633 35.259 63.482 35.362 C 64.33 35.466 65.102 35.904 65.624 36.58 C 66.087 38.24 65.146 39.967 63.501 40.478 C 66.565 39.967 68.796 41.069 68.971 42.158 C 69.145 43.246 67.721 44.523 65.611 45.289 C 67.613 45.638 68.944 46.861 68.903 47.775 C 68.863 48.689 67.089 50.046 64.576 49.764 C 66.74 50.436 67.6 52.452 67.089 53.648 C 66.579 54.844 64.549 55.476 62.627 54.4 C 64.71 56.121 65.53 58.016 65.033 58.688 C 64.536 59.359 62.748 59.118 60.773 58.069 C 62.439 59.682 63.192 61.443 62.708 62.101 C 62.224 62.76 60.02 62.706 57.574 61.174 C 58.515 64.318 58.152 66.818 57.225 67.168 C 56.298 67.517 54.537 65.998 53.193 63.485 C 53.428 64.801 52.661 66.089 51.392 66.509 C 50.621 66.61 49.844 66.372 49.262 65.857 C 48.679 65.341 48.349 64.599 48.355 63.821 C 48.511 64.591 48.34 65.391 47.885 66.03 C 47.429 66.669 46.728 67.091 45.95 67.194 C 44.596 66.899 43.661 65.661 43.746 64.278 C 43.548 65.628 42.421 66.648 41.058 66.711 C 40.283 66.477 39.641 65.931 39.287 65.204 C 38.932 64.477 38.897 63.635 39.19 62.88 C 38.677 63.924 37.515 64.48 36.381 64.224 C 35.739 63.873 35.274 63.267 35.103 62.556 C 34.931 61.844 35.069 61.093 35.481 60.488 C 34.723 61.309 33.517 61.538 32.511 61.053 C 31.997 60.524 31.723 59.806 31.754 59.069 C 31.784 58.332 32.116 57.64 32.672 57.155 C 31.806 57.898 30.527 57.898 29.662 57.155 C 29.312 56.594 29.214 55.911 29.393 55.275 C 29.572 54.638 30.011 54.106 30.602 53.809 C 28.062 54.038 26.342 52.868 26.288 51.901 C 26.235 50.933 27.471 49.979 29.258 49.549 C 27.041 49.146 25.952 47.399 26.261 46.364 C 26.815 45.426 27.867 44.9 28.949 45.02 C 28.207 44.75 27.622 44.168 27.347 43.428 C 27.073 42.688 27.138 41.865 27.525 41.176 C 28.439 40.304 29.837 40.187 30.884 40.894 C 29.151 39.255 28.277 37.75 28.667 37.199 C 29.057 36.648 31.65 37.481 31.812 37.548 C 30.75 35.438 30.374 33.745 30.871 33.395 C 31.368 33.046 32.591 33.919 33.895 35.21 C 32.927 32.28 33.734 29.941 34.862 29.592 C 35.763 29.296 37.107 30.237 38.101 31.648 C 37.455 30.402 37.828 28.87 38.975 28.06 C 39.942 27.684 41.663 28.517 42.2 30.452 C 41.985 28.329 43.208 26.689 44.323 26.568 C 45.439 26.447 47.267 27.912 47.253 30.398 C 48.248 27.711 49.511 26.071 50.21 26.259 C 50.909 26.447 51.191 28.463 50.855 31.111 C 51.379 28.423 53.865 27.173 55.37 27.751 C 56.946 28.654 57.648 30.556 57.037 32.266 Z " fill="rgb(234,0,50)"/><circle vector-effect="non-scaling-stroke" cx="47.01128831356765" cy="46.74022638899168" r="13.680927153186296" fill="rgb(75,0,86)"/><circle vector-effect="non-scaling-stroke" cx="47.01128831356754" cy="46.74022638899153" r="10.589951470246362" fill="rgb(219,0,64)"/><circle vector-effect="non-scaling-stroke" cx="47.25319075831924" cy="46.53864101836494" r="7.45865871318113" fill="rgb(55,0,93)"/><path d=" M 44.397 48.842 C 43.122 47.268 43.364 44.956 44.938 43.681 C 46.511 42.406 48.823 42.649 50.098 44.222 C 51.373 45.795 51.131 48.107 49.557 49.382 C 47.984 50.657 45.672 50.415 44.397 48.842 Z " fill="none" vector-effect="non-scaling-stroke" stroke-width="1" stroke="rgb(255,255,255)" stroke-linejoin="miter" stroke-linecap="round" stroke-miterlimit="10"/><path d=" M 119.362 86.289 C 123.972 79.664 129.455 72.501 131.296 73.428 C 132.143 73.858 131.887 75.861 131.834 76.371 C 131.283 80.82 126.337 84.65 119.362 86.289 Z " fill="rgb(0,222,106)"/><path d=" M 117.508 88.104 C 124.912 90.697 134.132 93.546 135.059 91.719 C 135.61 90.643 132.989 88.413 132.774 88.238 C 129.146 85.201 123.192 85.201 117.508 88.104 Z " fill="rgb(0,141,74)"/><path d=" M 130.234 83.346 C 131.914 81.088 136.537 75.135 140.408 74.355 C 140.999 74.234 142.423 73.939 142.961 74.624 C 143.499 75.31 142.961 76.559 142.692 77.043 C 141.066 80.605 132.801 82.728 130.234 83.346 Z " fill="rgb(0,139,78)"/><path d=" M 130.933 84.233 C 134.777 89.77 139.333 92.847 142.571 91.772 C 143.741 91.383 145.098 90.321 145.111 89.219 C 145.111 87.122 140.219 85.187 137.72 84.623 L 136.672 84.394 C 134.778 84.047 132.843 83.993 130.933 84.233 Z " fill="rgb(0,228,106)"/><path d=" M 151.28 82.137 C 151.935 83.463 151.646 85.062 150.568 86.074 C 147.584 88.762 138.916 82.755 138.472 82.405 C 141.442 82.002 143.929 81.76 145.756 81.612 C 149.573 81.303 150.715 81.371 151.28 82.137 Z " fill="rgb(0,140,85)"/><path d=" M 52.413 84.157 C 47.521 77.141 41.661 69.548 39.766 70.529 C 38.866 70.973 39.135 73.11 39.202 73.647 C 39.793 78.311 45.035 82.369 52.413 84.157 Z " fill="rgb(0,222,106)"/><path d=" M 54.388 86.038 C 46.54 88.726 36.783 91.803 35.789 89.868 C 35.211 88.726 37.993 86.361 38.208 86.172 C 42.051 82.947 48.367 82.96 54.388 86.038 Z " fill="rgb(0,141,74)"/><path d=" M 40.909 80.985 C 39.135 78.593 34.189 72.303 30.158 71.47 C 29.539 71.336 28.034 71.027 27.47 71.766 C 26.905 72.505 27.47 73.809 27.752 74.319 C 29.432 78.082 38.194 80.34 40.909 80.985 Z " fill="rgb(0,139,78)"/><path d=" M 40.17 81.926 C 36.138 87.799 31.26 91.051 27.846 89.989 C 26.596 89.572 25.158 88.457 25.158 87.301 C 25.158 85.084 30.346 83.095 32.993 82.436 C 33.477 82.315 33.907 82.235 34.109 82.194 C 36.103 81.795 38.147 81.705 40.17 81.926 L 40.17 81.926 Z " fill="rgb(0,228,106)"/><path d=" M 18.613 79.708 C 17.908 81.11 18.215 82.808 19.366 83.874 C 22.524 86.656 31.717 80.367 32.241 79.99 C 29.109 79.574 26.475 79.319 24.54 79.157 C 20.414 78.781 19.205 78.902 18.613 79.708 Z " fill="rgb(0,140,85)"/><path d=" M 89.239 78.606 C 87.895 71.712 89.615 66.242 92.854 64.925 C 93.875 64.509 95.623 64.28 96.335 65.154 C 97.8 66.955 94.158 72.518 89.239 78.606 Z " fill="rgb(0,222,107)"/><path d=" M 87.935 80.985 C 81.216 75.126 76.687 70.072 77.896 67.895 C 78.528 66.766 80.584 66.659 81.928 66.981 C 85.637 67.909 88.379 73.459 87.935 80.985 Z " fill="rgb(0,140,80)"/><path d=" M 87.72 69.911 C 87.237 68.057 84.925 58.932 87.814 57.373 C 88.944 56.918 90.237 57.207 91.067 58.098 C 92.814 59.98 91.631 64.724 87.72 69.911 Z " fill="rgb(0,138,82)"/><radialGradient id="_rgradient_4" fx="0.5" fy="110.48" cx="0.5" cy="110.48" r="6.13" gradientTransform="matrix(16.476,0,0,16.476,81.005,137.273)" gradientUnits="userSpaceOnUse"><stop offset="51%" stop-opacity="1" style="stop-color:rgb(242,242,242)"/><stop offset="99%" stop-opacity="1" style="stop-color:rgb(255,255,255)"/></radialGradient><circle vector-effect="non-scaling-stroke" cx="89.24273116484416" cy="145.5113700715091" r="8.238122146270328" fill="url(#_rgradient_4)"/><circle vector-effect="non-scaling-stroke" cx="89.24273116484424" cy="145.51137007150936" r="5.644390377542479" fill="rgb(234,0,53)" stroke-width="1" stroke="rgb(0,192,220)" stroke-linejoin="miter" stroke-linecap="butt" stroke-miterlimit="4"/><circle vector-effect="non-scaling-stroke" cx="89.24273116484414" cy="145.51137007150913" r="11.261902705668092" fill="none" stroke-width="1" stroke="rgb(93,204,232)" stroke-linejoin="miter" stroke-linecap="round" stroke-miterlimit="10"/><circle vector-effect="non-scaling-stroke" cx="63.775779342360366" cy="143.3476870934511" r="5.32185378454005" fill="rgb(255,150,0)"/><circle vector-effect="non-scaling-stroke" cx="63.775779342360366" cy="143.34768709345155" r="3.641975695985739" fill="rgb(234,0,53)" stroke-width="1" stroke="rgb(0,192,220)" stroke-linejoin="miter" stroke-linecap="butt" stroke-miterlimit="4"/><circle vector-effect="non-scaling-stroke" cx="63.77577934236077" cy="143.34768709345107" r="7.270512367263045" fill="none" stroke-width="1" stroke="rgb(93,204,232)" stroke-linejoin="miter" stroke-linecap="round" stroke-miterlimit="10"/><circle vector-effect="non-scaling-stroke" cx="113.78239028244555" cy="143.3476870934511" r="5.321853784540053" fill="rgb(255,150,0)"/><circle vector-effect="non-scaling-stroke" cx="113.78239028244555" cy="143.34768709345155" r="3.6419756959857352" fill="rgb(234,0,53)" stroke-width="1" stroke="rgb(0,192,220)" stroke-linejoin="miter" stroke-linecap="butt" stroke-miterlimit="4"/><circle vector-effect="non-scaling-stroke" cx="113.78239028244514" cy="143.34768709345107" r="7.270512367263052" fill="none" stroke-width="1" stroke="rgb(93,204,232)" stroke-linejoin="miter" stroke-linecap="round" stroke-miterlimit="10"/></g><g><g><g><g><path d=" M 60.15 90.851 L 60.15 61.098 L 77.103 61.098 L 77.103 75.917 L 96.985 75.917 L 96.985 60.922 L 112.536 60.922 C 113.419 60.922 114.089 60.922 114.089 62.095 L 114.089 90.851 L 60.15 90.851 Z " fill="rgb(255,255,255)"/></g><g><rect x="77.271" y="37.194" width="19.679" height="14.872" transform="matrix(1,0,0,1,0,0)" fill="rgb(255,255,255)"/></g><g><path d=" M 19.989 100.228 L 24.611 100.228 L 24.611 115.02 C 24.655 118.328 26.534 120.233 29.621 120.207 C 32.708 120.18 34.411 118.354 34.446 115.064 C 34.508 110.213 34.446 105.361 34.446 100.333 L 39.2 100.333 L 39.2 109.269 C 39.2 111.545 39.289 113.829 39.094 116.061 C 38.68 121.203 35.125 124.591 30.115 124.793 C 24.822 125.049 20.544 121.997 20.094 116.855 C 19.636 111.342 19.989 105.82 19.989 100.228 Z " fill="rgb(255,255,255)"/></g><g><path d=" M 79.556 123.206 L 79.556 130.58 L 74.986 130.58 L 74.986 107.549 C 76.645 107.91 78.515 106.393 79.653 108.766 C 82.775 106.614 87.062 106.279 90.07 109.542 C 92.787 112.488 92.884 118.363 90.405 121.697 C 88.041 124.882 84.363 125.402 79.556 123.206 Z  M 87.759 115.849 C 87.759 113.132 86.065 111.236 83.622 111.209 C 81.179 111.183 79.547 113.115 79.511 115.876 C 79.476 118.637 81.187 120.621 83.745 120.577 C 86.303 120.533 87.759 118.672 87.759 115.849 Z " fill="rgb(255,255,255)"/></g><g><path d=" M 136.194 124.185 L 136.194 100.298 L 140.604 100.298 L 140.604 108.025 C 142.427 107.614 144.279 107.345 146.144 107.222 C 148.702 107.222 150.748 108.837 150.969 111.245 C 151.348 115.514 151.075 119.845 151.075 124.229 L 146.876 124.229 L 146.876 115.249 C 146.876 112.471 145.879 111.174 143.85 111.174 C 141.822 111.174 140.675 112.594 140.657 115.382 L 140.657 124.202 L 136.194 124.185 Z " fill="rgb(255,255,255)"/></g><g><path d=" M 113.569 108.942 C 114.495 106.296 116.523 108.06 118.111 107.355 L 118.111 124.044 C 114.839 124.758 114.045 124.538 113.569 122.685 C 111.804 124.255 109.776 125.235 107.509 124.449 C 105.862 123.958 104.353 123.092 103.098 121.918 C 100.161 118.786 100.328 112.638 103.098 109.507 C 105.692 106.667 109.749 106.393 113.595 108.934 L 113.569 108.942 Z  M 109.643 120.577 C 112.069 120.577 113.771 118.645 113.78 115.92 C 113.789 113.194 112.016 111.174 109.714 111.174 C 107.165 111.174 105.48 113.088 105.515 115.92 C 105.55 118.751 107.165 120.586 109.643 120.577 Z " fill="rgb(255,255,255)"/></g><g><path d=" M 46.566 124.22 L 42.155 124.22 L 42.155 107.76 C 45.481 107.196 46.098 107.364 46.654 108.89 C 47.495 108.338 48.38 107.857 49.3 107.452 C 53.296 106.137 56.974 108.528 57.195 112.744 C 57.389 116.493 57.239 120.26 57.239 124.211 L 52.74 124.211 L 52.74 114.676 C 52.599 112.303 51.585 111.148 49.662 111.148 C 47.739 111.148 46.636 112.383 46.539 114.623 C 46.442 117.084 46.539 119.554 46.495 122.024 L 46.566 124.22 Z " fill="rgb(255,255,255)"/></g><g><path d=" M 72.172 112.303 C 70.47 112.171 68.776 112.912 67.533 111.051 C 67.206 110.566 65.769 110.68 64.887 110.812 C 64.516 110.812 64.004 111.695 64.004 112.109 C 64.095 112.658 64.447 113.128 64.948 113.371 C 66.095 113.794 67.33 113.944 68.477 114.253 C 71.432 115.135 72.887 116.899 72.834 119.439 C 72.781 121.98 70.885 123.955 68.088 124.573 C 63.678 125.57 59.815 123.259 59.338 119.148 C 61.049 119.148 62.814 118.319 64.093 120.427 C 64.692 121.008 65.524 121.281 66.351 121.168 C 67.074 121.071 67.771 120.33 68.477 119.871 C 67.93 119.254 67.515 118.407 66.836 118.107 C 65.798 117.744 64.733 117.464 63.652 117.269 C 61.217 116.528 59.876 114.932 59.762 112.735 C 59.68 110.529 60.978 108.503 63.016 107.655 C 67.744 105.608 72.49 108.616 72.128 112.294 L 72.172 112.303 Z " fill="rgb(255,255,255)"/></g><g><path d=" M 133.909 112.224 C 131.651 112.224 129.958 112.947 128.687 111.042 C 128.37 110.574 127.1 110.486 126.368 110.645 C 125.751 110.92 125.309 111.481 125.186 112.144 C 125.133 112.533 125.803 113.265 126.306 113.459 C 127.391 113.864 128.573 113.979 129.693 114.341 C 132.498 115.144 134.103 116.987 134.033 119.369 C 133.899 121.998 131.974 124.19 129.384 124.661 C 124.85 125.755 120.863 123.356 120.563 119.228 C 122.275 119.228 124.092 118.495 125.309 120.586 C 125.653 121.133 126.95 121.371 127.761 121.265 C 128.44 121.186 129.023 120.383 129.649 119.907 C 129.155 119.333 128.767 118.504 128.123 118.222 C 126.958 117.719 125.609 117.613 124.4 117.163 C 120.422 115.717 119.655 111.236 122.874 108.528 C 125.203 106.57 129.534 106.49 131.695 108.643 C 132.577 109.525 133.045 110.812 133.909 112.277 L 133.909 112.224 Z " fill="rgb(255,255,255)"/></g><g><rect x="94.427" y="100.228" width="4.296" height="23.94" transform="matrix(1,0,0,1,0,0)" fill="rgb(255,255,255)"/></g></g></g><text transform="matrix(0.882,0,0,0.882,50.932,27.408)" style="font-family:'Open Sans';font-weight:600;font-size:16px;font-style:normal;font-variant-ligatures:none;fill:#FFFFFF;stroke:none;">P</text><text transform="matrix(0.882,0,0,0.882,58.086,27.408)" style="font-family:'Open Sans';font-weight:600;font-size:16px;font-style:normal;font-variant-ligatures:none;fill:#FFFFFF;stroke:none;">o</text><text transform="matrix(0.882,0,0,0.882,65.733,27.408)" style="font-family:'Open Sans';font-weight:600;font-size:16px;font-style:normal;font-variant-ligatures:none;fill:#FFFFFF;stroke:none;">w</text><text transform="matrix(0.882,0,0,0.882,75.983,27.408)" style="font-family:'Open Sans';font-weight:600;font-size:16px;font-style:normal;font-variant-ligatures:none;fill:#FFFFFF;stroke:none;">e</text><text transform="matrix(0.882,0,0,0.882,83.057,27.408)" style="font-family:'Open Sans';font-weight:600;font-size:16px;font-style:normal;font-variant-ligatures:none;fill:#FFFFFF;stroke:none;">r</text><text transform="matrix(0.882,0,0,0.882,87.53,27.408)" style="font-family:'Open Sans';font-weight:600;font-size:16px;font-style:normal;font-variant-ligatures:none;fill:#FFFFFF;stroke:none;">ed </text><text transform="matrix(0.882,0,0,0.882,105.55,27.408)" style="font-family:'Open Sans';font-weight:600;font-size:16px;font-style:normal;font-variant-ligatures:none;fill:#FFFFFF;stroke:none;">b</text><text transform="matrix(0.882,0,0,0.882,113.48,27.408)" style="font-family:'Open Sans';font-weight:600;font-size:16px;font-style:normal;font-variant-ligatures:none;fill:#FFFFFF;stroke:none;">y</text></g></svg>