<svg id="Capa_1" data-name="Capa 1" xmlns="http://www.w3.org/2000/svg" xmlns:xlink="http://www.w3.org/1999/xlink" viewBox="0 0 24 24"><defs><linearGradient id="Degradado_sin_nombre_7" x1="12" y1="23.05" x2="12" y2="2.05" gradientUnits="userSpaceOnUse"><stop offset="0" stop-color="#0e141f"/><stop offset="1" stop-color="#273445"/></linearGradient><linearGradient id="Degradado_sin_nombre_6" x1="-658.1" y1="358.67" x2="-658.1" y2="353.3" gradientTransform="matrix(4.16, 0, 0, -4.16, 2752.25, 1494.88)" gradientUnits="userSpaceOnUse"><stop offset="0" stop-color="#fff"/><stop offset="0.42" stop-color="#fff" stop-opacity="0.24"/><stop offset="0.82" stop-color="#fff" stop-opacity="0.16"/><stop offset="1" stop-color="#fff" stop-opacity="0.39"/></linearGradient><radialGradient id="Degradado_sin_nombre_5" cx="36.93" cy="8.33" r="6.06" gradientTransform="translate(-21.85 5.36) scale(0.92)" gradientUnits="userSpaceOnUse"><stop offset="0.51" stop-color="#fafafa"/><stop offset="1" stop-color="#d4d4d4"/></radialGradient><linearGradient id="Degradado_sin_nombre_2" x1="13.07" y1="14.07" x2="10.93" y2="11.93" gradientUnits="userSpaceOnUse"><stop offset="0" stop-color="#3689e6"/><stop offset="1" stop-color="#68b723"/></linearGradient><linearGradient id="Degradado_sin_nombre_2-2" x1="12.93" y1="13.93" x2="11.07" y2="12.07" xlink:href="#Degradado_sin_nombre_2"/><linearGradient id="Degradado_sin_nombre_10" x1="2227.38" y1="-3246.54" x2="2227.38" y2="-3257.85" gradientTransform="matrix(0.8, 0, 0, -0.6, -1773.57, -1937.11)" gradientUnits="userSpaceOnUse"><stop offset="0" stop-color="#9bdb4d"/><stop offset="1" stop-color="#68b723"/></linearGradient><linearGradient id="Degradado_sin_nombre_9" x1="787.84" y1="-109.89" x2="787.84" y2="-123.25" gradientTransform="matrix(0.51, 0, 0, -0.51, -385.57, -40.37)" gradientUnits="userSpaceOnUse"><stop offset="0" stop-color="#fff"/><stop offset="0.51" stop-color="#fff" stop-opacity="0.24"/><stop offset="0.83" stop-color="#fff" stop-opacity="0.16"/><stop offset="1" stop-color="#fff" stop-opacity="0.39"/></linearGradient></defs><title>fondo-success-24</title><g id="g4178"><path id="path4176" d="M12,2.05A10.5,10.5,0,1,1,1.5,12.55,10.51,10.51,0,0,1,12,2.05Z" style="fill:url(#Degradado_sin_nombre_7)"/><path id="path2555-7-65-3" d="M12,2.05A10.5,10.5,0,1,1,1.5,12.55,10.51,10.51,0,0,1,12,2.05Z" style="fill:none;stroke:#0e141f;stroke-width:0.5px;opacity:0.5;isolation:isolate"/><path id="path3019" d="M22.3,12.55A10.3,10.3,0,1,1,12,2.25,10.3,10.3,0,0,1,22.3,12.55Z" style="fill:none;stroke-linecap:round;stroke-linejoin:round;stroke-width:0.5px;opacity:0.300000011920929;isolation:isolate;stroke:url(#Degradado_sin_nombre_6)"/></g><g style="opacity:0.75"><path d="M15.17,7.45H8.83A2.39,2.39,0,0,0,6.45,9.83v6.34a2.39,2.39,0,0,0,2.38,2.38h6.34a2.39,2.39,0,0,0,2.38-2.38V9.83A2.39,2.39,0,0,0,15.17,7.45ZM12,16a3,3,0,1,1,3-3A3,3,0,0,1,12,16Z"/><path d="M15.17,7.45H8.83A2.39,2.39,0,0,0,6.45,9.83v6.34a2.39,2.39,0,0,0,2.38,2.38h6.34a2.39,2.39,0,0,0,2.38-2.38V9.83A2.39,2.39,0,0,0,15.17,7.45ZM12,16a3,3,0,1,1,3-3A3,3,0,0,1,12,16Z" style="fill:none;stroke:#000;stroke-miterlimit:10;stroke-width:0.5px"/></g><path d="M15.17,7.45H8.83A2.39,2.39,0,0,0,6.45,9.83v6.34a2.39,2.39,0,0,0,2.38,2.38h6.34a2.39,2.39,0,0,0,2.38-2.38V9.83A2.39,2.39,0,0,0,15.17,7.45ZM12,16a3,3,0,1,1,3-3A3,3,0,0,1,12,16Z" style="fill:url(#Degradado_sin_nombre_5)"/><g style="opacity:0.6000000000000001"><path d="M15.17,7.45H8.83A2.39,2.39,0,0,0,6.45,9.83v6.34a2.39,2.39,0,0,0,2.38,2.38h6.34a2.39,2.39,0,0,0,2.38-2.38V9.83A2.39,2.39,0,0,0,15.17,7.45ZM12,16a3,3,0,1,1,3-3A3,3,0,0,1,12,16Z" style="fill:none;stroke:#000;stroke-miterlimit:10;stroke-width:0.5px"/></g><g style="opacity:0.75"><circle cx="12" cy="13" r="1.51"/><circle cx="12" cy="13" r="1.51" style="fill:none;stroke:#000;stroke-miterlimit:10;stroke-width:0.5px;opacity:0.4"/></g><circle cx="12" cy="13" r="1.51" style="fill:url(#Degradado_sin_nombre_2)"/><circle cx="12" cy="13" r="1.51" style="fill:none;stroke:#000;stroke-miterlimit:10;stroke-width:0.5px;opacity:0.4"/><path d="M15.06,7.63H8.94A2.32,2.32,0,0,0,6.63,9.94v6.12a2.32,2.32,0,0,0,2.31,2.31h6.12a2.32,2.32,0,0,0,2.31-2.31V9.94A2.32,2.32,0,0,0,15.06,7.63ZM12,16.14A3.15,3.15,0,1,1,15.1,13,3.15,3.15,0,0,1,12,16.14Z" style="fill:none;stroke:#fff;stroke-miterlimit:10;stroke-opacity:0.6000000000000001;stroke-width:0.5px"/><circle cx="12" cy="13" r="1.31" style="stroke:#fff;stroke-miterlimit:10;stroke-opacity:0.1;stroke-width:0.5px;fill:url(#Degradado_sin_nombre_2-2)"/><path id="path2555-7-8-5-0-9" d="M19,16a3.5,3.5,0,1,0,3.5,3.5A3.5,3.5,0,0,0,19,16Z" style="opacity:0.9900000095367432;isolation:isolate;fill:url(#Degradado_sin_nombre_10)"/><path id="path2555-7-8-5-1" d="M19,16a3.5,3.5,0,1,0,3.5,3.5A3.5,3.5,0,0,0,19,16Z" style="fill:none;stroke:#206b00;stroke-linecap:round;stroke-linejoin:round;stroke-width:0.9999998807907104px;opacity:0.5;isolation:isolate"/><path id="path2922-6-6-0-9-7" d="M20.33,18l.67.61-2.26,3L17,20.12l.58-.76,1,.88Z" style="fill:#fff;opacity:0.5;isolation:isolate"/><path id="path8655-6-0-9-5-0" d="M22.17,19.5A3.17,3.17,0,1,1,19,16.33,3.17,3.17,0,0,1,22.17,19.5Z" style="fill:none;stroke-linecap:round;stroke-linejoin:round;stroke-width:0.9999998807907104px;opacity:0.5;isolation:isolate;stroke:url(#Degradado_sin_nombre_9)"/><path id="path2922-6-6-0-9-4-2" d="M20.33,17.71l.67.6-2.26,3L17,19.79l.58-.77,1,.89Z" style="fill:#206b00"/></svg>