<svg id="Capa_1" data-name="Capa 1" xmlns="http://www.w3.org/2000/svg" xmlns:xlink="http://www.w3.org/1999/xlink" viewBox="0 0 24 24"><defs><radialGradient id="Degradado_sin_nombre_4" cx="457.33" cy="-815.84" r="12.68" gradientTransform="matrix(0.69, 0, 0, -0.22, -301.4, -155.2)" gradientUnits="userSpaceOnUse"><stop offset="0" stop-color="#3d3d3d"/><stop offset="0.5" stop-color="#686868" stop-opacity="0.5"/><stop offset="1" stop-color="#686868" stop-opacity="0"/></radialGradient><linearGradient id="Degradado_sin_nombre_100" x1="12" y1="22.05" x2="12" y2="1.05" gradientUnits="userSpaceOnUse"><stop offset="0" stop-color="#0e141f"/><stop offset="1" stop-color="#273445"/></linearGradient><linearGradient id="Degradado_sin_nombre_3" x1="-658.1" y1="358.91" x2="-658.1" y2="353.54" gradientTransform="matrix(4.16, 0, 0, -4.16, 2752.25, 1494.88)" gradientUnits="userSpaceOnUse"><stop offset="0" stop-color="#fff"/><stop offset="0.42" stop-color="#fff" stop-opacity="0.24"/><stop offset="0.82" stop-color="#fff" stop-opacity="0.16"/><stop offset="1" stop-color="#fff" stop-opacity="0.39"/></linearGradient><radialGradient id="Degradado_sin_nombre_80" cx="36.93" cy="7.24" r="6.06" gradientTransform="translate(-21.85 5.36) scale(0.92)" gradientUnits="userSpaceOnUse"><stop offset="0.51" stop-color="#fafafa"/><stop offset="1" stop-color="#d4d4d4"/></radialGradient><linearGradient id="Degradado_sin_nombre_56" x1="13.07" y1="13.07" x2="10.93" y2="10.93" gradientUnits="userSpaceOnUse"><stop offset="0" stop-color="#3689e6"/><stop offset="1" stop-color="#68b723"/></linearGradient><linearGradient id="Degradado_sin_nombre_56-2" x1="12.93" y1="12.93" x2="11.07" y2="11.07" xlink:href="#Degradado_sin_nombre_56"/></defs><title>com.github.calo001.fondo24</title><g id="g4178"><path id="path3818-0-5-0" d="M20.58,20.23c0,1.5-3.88,2.72-8.68,2.72s-8.68-1.22-8.68-2.72S7.2,17.5,12,17.5,20.58,18.72,20.58,20.23Z" fill="url(#Degradado_sin_nombre_4)"/><path id="path4176" d="M12,1.05A10.5,10.5,0,1,1,1.5,11.55,10.51,10.51,0,0,1,12,1.05Z" fill="url(#Degradado_sin_nombre_100)"/><path id="path2555-7-65-3" d="M12,1.05A10.5,10.5,0,1,1,1.5,11.55,10.51,10.51,0,0,1,12,1.05Z" fill="none" stroke="#0e141f" stroke-width="0.5" opacity="0.5" style="isolation:isolate"/><path id="path3019" d="M22.3,11.55A10.3,10.3,0,1,1,12,1.25,10.3,10.3,0,0,1,22.3,11.55Z" fill="none" stroke-linecap="round" stroke-linejoin="round" stroke-width="0.5" opacity="0.3" stroke="url(#Degradado_sin_nombre_3)" style="isolation:isolate"/></g><g opacity="0.75"><path d="M15.17,6.45H8.83A2.39,2.39,0,0,0,6.45,8.83v6.34a2.39,2.39,0,0,0,2.38,2.38h6.34a2.39,2.39,0,0,0,2.38-2.38V8.83A2.39,2.39,0,0,0,15.17,6.45ZM12,15a3,3,0,1,1,3-3A3,3,0,0,1,12,15Z"/><path d="M15.17,6.45H8.83A2.39,2.39,0,0,0,6.45,8.83v6.34a2.39,2.39,0,0,0,2.38,2.38h6.34a2.39,2.39,0,0,0,2.38-2.38V8.83A2.39,2.39,0,0,0,15.17,6.45ZM12,15a3,3,0,1,1,3-3A3,3,0,0,1,12,15Z" fill="none" stroke="#000" stroke-miterlimit="10" stroke-width="0.5"/></g><path d="M15.17,6.45H8.83A2.39,2.39,0,0,0,6.45,8.83v6.34a2.39,2.39,0,0,0,2.38,2.38h6.34a2.39,2.39,0,0,0,2.38-2.38V8.83A2.39,2.39,0,0,0,15.17,6.45ZM12,15a3,3,0,1,1,3-3A3,3,0,0,1,12,15Z" fill="url(#Degradado_sin_nombre_80)"/><g opacity="0.6"><path d="M15.17,6.45H8.83A2.39,2.39,0,0,0,6.45,8.83v6.34a2.39,2.39,0,0,0,2.38,2.38h6.34a2.39,2.39,0,0,0,2.38-2.38V8.83A2.39,2.39,0,0,0,15.17,6.45ZM12,15a3,3,0,1,1,3-3A3,3,0,0,1,12,15Z" fill="none" stroke="#000" stroke-miterlimit="10" stroke-width="0.5"/></g><g opacity="0.75"><circle cx="12" cy="12" r="1.51"/><circle cx="12" cy="12" r="1.51" fill="none" stroke="#000" stroke-miterlimit="10" stroke-width="0.5" opacity="0.4"/></g><circle cx="12" cy="12" r="1.51" fill="url(#Degradado_sin_nombre_56)"/><circle cx="12" cy="12" r="1.51" fill="none" stroke="#000" stroke-miterlimit="10" stroke-width="0.5" opacity="0.4"/><path d="M15.06,6.63H8.94A2.32,2.32,0,0,0,6.63,8.94v6.12a2.32,2.32,0,0,0,2.31,2.31h6.12a2.32,2.32,0,0,0,2.31-2.31V8.94A2.32,2.32,0,0,0,15.06,6.63ZM12,15.14A3.15,3.15,0,1,1,15.1,12,3.15,3.15,0,0,1,12,15.14Z" fill="none" stroke="#fff" stroke-miterlimit="10" stroke-opacity="0.6" stroke-width="0.5"/><circle cx="12" cy="12" r="1.31" stroke="#fff" stroke-miterlimit="10" stroke-opacity="0.1" stroke-width="0.5" fill="url(#Degradado_sin_nombre_56-2)"/></svg>