<svg id="Capa_1" data-name="Capa 1" xmlns="http://www.w3.org/2000/svg" xmlns:xlink="http://www.w3.org/1999/xlink" viewBox="0 0 16 16"><defs><radialGradient id="Degradado_sin_nombre_4" cx="466.95" cy="-786.95" r="8.33" gradientTransform="matrix(0.69, 0, 0, -0.22, -311.95, -155.81)" gradientUnits="userSpaceOnUse"><stop offset="0" stop-color="#3d3d3d"/><stop offset="0.5" stop-color="#686868" stop-opacity="0.5"/><stop offset="1" stop-color="#686868" stop-opacity="0"/></radialGradient><linearGradient id="Degradado_sin_nombre_100" x1="8" y1="14.6" x2="8" y2="0.8" gradientUnits="userSpaceOnUse"><stop offset="0" stop-color="#0e141f"/><stop offset="1" stop-color="#273445"/></linearGradient><linearGradient id="Degradado_sin_nombre_3" x1="-684.52" y1="358.26" x2="-684.52" y2="354.81" gradientTransform="matrix(4.16, 0, 0, -4.16, 2858.24, 1492.3)" gradientUnits="userSpaceOnUse"><stop offset="0" stop-color="#fff"/><stop offset="0.42" stop-color="#fff" stop-opacity="0.24"/><stop offset="0.82" stop-color="#fff" stop-opacity="0.16"/><stop offset="1" stop-color="#fff" stop-opacity="0.39"/></linearGradient><radialGradient id="Degradado_sin_nombre_80" cx="35.61" cy="2.92" r="3.98" gradientTransform="translate(-24.64 5.32) scale(0.92)" gradientUnits="userSpaceOnUse"><stop offset="0.51" stop-color="#fafafa"/><stop offset="1" stop-color="#d4d4d4"/></radialGradient><linearGradient id="Degradado_sin_nombre_56" x1="8.7" y1="8.7" x2="7.3" y2="7.3" gradientUnits="userSpaceOnUse"><stop offset="0" stop-color="#3689e6"/><stop offset="1" stop-color="#68b723"/></linearGradient><linearGradient id="Degradado_sin_nombre_56-2" x1="8.61" y1="8.61" x2="7.39" y2="7.39" xlink:href="#Degradado_sin_nombre_56"/></defs><title>com.github.calo001.fondo16</title><g id="g4178"><path id="path3818-0-5-0" d="M13.64,13.41c0,1-2.55,1.79-5.71,1.79s-5.7-.8-5.7-1.79S4.85,11.62,8,11.62,13.64,12.42,13.64,13.41Z" fill="url(#Degradado_sin_nombre_4)"/><path id="path4176" d="M8,.8A6.9,6.9,0,1,1,1.1,7.7,6.9,6.9,0,0,1,8,.8Z" fill="url(#Degradado_sin_nombre_100)"/><path id="path2555-7-65-3" d="M8,.8A6.9,6.9,0,1,1,1.1,7.7,6.9,6.9,0,0,1,8,.8Z" fill="none" stroke="#0e141f" opacity="0.5" style="isolation:isolate"/><path id="path3019" d="M14.77,7.7A6.77,6.77,0,1,1,8,.93,6.77,6.77,0,0,1,14.77,7.7Z" fill="none" stroke-linecap="round" stroke-linejoin="round" stroke-width="0.25" opacity="0.3" stroke="url(#Degradado_sin_nombre_3)" style="isolation:isolate"/></g><path d="M10.08,4.35H5.92A1.58,1.58,0,0,0,4.35,5.92v4.16a1.58,1.58,0,0,0,1.57,1.57h4.16a1.58,1.58,0,0,0,1.57-1.57V5.92A1.58,1.58,0,0,0,10.08,4.35ZM8,10a2,2,0,1,1,2-2A2,2,0,0,1,8,10Z" stroke="#000" stroke-miterlimit="10" stroke-opacity="0.6" stroke-width="0.25" fill="url(#Degradado_sin_nombre_80)"/><g opacity="0.75"><circle cx="8" cy="8" r="1"/><circle cx="8" cy="8" r="1" fill="none" stroke="#000" stroke-miterlimit="10" stroke-width="0.25" opacity="0.4"/></g><circle cx="8" cy="8" r="1" fill="url(#Degradado_sin_nombre_56)"/><circle cx="8" cy="8" r="1" fill="none" stroke="#000" stroke-miterlimit="10" stroke-width="0.25" opacity="0.4"/><path d="M10,4.47H6A1.52,1.52,0,0,0,4.47,6v4A1.52,1.52,0,0,0,6,11.53h4A1.52,1.52,0,0,0,11.53,10V6A1.52,1.52,0,0,0,10,4.47ZM8,10.06A2.07,2.07,0,1,1,10,8,2.07,2.07,0,0,1,8,10.06Z" fill="none" stroke="#fff" stroke-miterlimit="10" stroke-opacity="0.6" stroke-width="0.25"/><circle cx="8" cy="8" r="0.86" stroke="#fff" stroke-miterlimit="10" stroke-opacity="0.1" stroke-width="0.25" fill="url(#Degradado_sin_nombre_56-2)"/></svg>