<svg id="Capa_1" data-name="Capa 1" xmlns="http://www.w3.org/2000/svg" xmlns:xlink="http://www.w3.org/1999/xlink" viewBox="0 0 16 16"><defs><linearGradient id="Degradado_sin_nombre_7" x1="8" y1="14.9" x2="8" y2="1.1" gradientUnits="userSpaceOnUse"><stop offset="0" stop-color="#0e141f"/><stop offset="1" stop-color="#273445"/></linearGradient><linearGradient id="Degradado_sin_nombre_6" x1="-684.52" y1="358.19" x2="-684.52" y2="354.74" gradientTransform="matrix(4.16, 0, 0, -4.16, 2858.24, 1492.3)" gradientUnits="userSpaceOnUse"><stop offset="0" stop-color="#fff"/><stop offset="0.42" stop-color="#fff" stop-opacity="0.24"/><stop offset="0.82" stop-color="#fff" stop-opacity="0.16"/><stop offset="1" stop-color="#fff" stop-opacity="0.39"/></linearGradient><radialGradient id="Degradado_sin_nombre_5" cx="35.61" cy="3.25" r="3.98" gradientTransform="translate(-24.64 5.32) scale(0.92)" gradientUnits="userSpaceOnUse"><stop offset="0.51" stop-color="#fafafa"/><stop offset="1" stop-color="#d4d4d4"/></radialGradient><linearGradient id="Degradado_sin_nombre_2" x1="8.7" y1="9" x2="7.3" y2="7.59" gradientUnits="userSpaceOnUse"><stop offset="0" stop-color="#3689e6"/><stop offset="1" stop-color="#68b723"/></linearGradient><linearGradient id="Degradado_sin_nombre_2-2" x1="8.61" y1="8.91" x2="7.39" y2="7.69" xlink:href="#Degradado_sin_nombre_2"/><linearGradient id="Degradado_sin_nombre_10" x1="2227.43" y1="-3236.97" x2="2227.43" y2="-3245.05" gradientTransform="matrix(0.8, 0, 0, -0.6, -1780.11, -1937.91)" gradientUnits="userSpaceOnUse"><stop offset="0" stop-color="#9bdb4d"/><stop offset="1" stop-color="#68b723"/></linearGradient><linearGradient id="Degradado_sin_nombre_9" x1="806.92" y1="-98.53" x2="806.92" y2="-108.36" gradientTransform="matrix(0.51, 0, 0, -0.51, -401.86, -41.13)" gradientUnits="userSpaceOnUse"><stop offset="0" stop-color="#fff"/><stop offset="0.51" stop-color="#fff" stop-opacity="0.24"/><stop offset="0.83" stop-color="#fff" stop-opacity="0.16"/><stop offset="1" stop-color="#fff" stop-opacity="0.39"/></linearGradient></defs><title>fondo-success-16</title><g id="g4178"><path id="path4176" d="M8,1.1A6.9,6.9,0,1,1,1.1,8,6.9,6.9,0,0,1,8,1.1Z" style="fill:url(#Degradado_sin_nombre_7)"/><path id="path2555-7-65-3" d="M8,1.1A6.9,6.9,0,1,1,1.1,8,6.9,6.9,0,0,1,8,1.1Z" style="fill:none;stroke:#0e141f;opacity:0.5;isolation:isolate"/><path id="path3019" d="M14.77,8A6.77,6.77,0,1,1,8,1.23,6.77,6.77,0,0,1,14.77,8Z" style="fill:none;stroke-linecap:round;stroke-linejoin:round;stroke-width:0.25px;opacity:0.300000011920929;isolation:isolate;stroke:url(#Degradado_sin_nombre_6)"/></g><path d="M10.08,4.65H5.92A1.58,1.58,0,0,0,4.35,6.22v4.16A1.58,1.58,0,0,0,5.92,12h4.16a1.58,1.58,0,0,0,1.57-1.57V6.22A1.58,1.58,0,0,0,10.08,4.65ZM8,10.26a2,2,0,1,1,2-2A2,2,0,0,1,8,10.26Z" style="stroke:#000;stroke-miterlimit:10;stroke-opacity:0.6000000000000001;stroke-width:0.25px;fill:url(#Degradado_sin_nombre_5)"/><g style="opacity:0.75"><circle cx="8" cy="8.3" r="1"/><circle cx="8" cy="8.3" r="1" style="fill:none;stroke:#000;stroke-miterlimit:10;stroke-width:0.25px;opacity:0.4"/></g><circle cx="8" cy="8.3" r="1" style="fill:url(#Degradado_sin_nombre_2)"/><circle cx="8" cy="8.3" r="1" style="fill:none;stroke:#000;stroke-miterlimit:10;stroke-width:0.25px;opacity:0.4"/><path d="M10,4.77H6A1.52,1.52,0,0,0,4.47,6.29v4A1.53,1.53,0,0,0,6,11.83h4a1.53,1.53,0,0,0,1.52-1.52v-4A1.52,1.52,0,0,0,10,4.77ZM8,10.36A2.07,2.07,0,1,1,10,8.29,2.07,2.07,0,0,1,8,10.36Z" style="fill:none;stroke:#fff;stroke-miterlimit:10;stroke-opacity:0.6000000000000001;stroke-width:0.25px"/><circle cx="8" cy="8.3" r="0.86" style="stroke:#fff;stroke-miterlimit:10;stroke-opacity:0.1;stroke-width:0.25px;fill:url(#Degradado_sin_nombre_2-2)"/><path id="path2555-7-8-5-0-9" d="M12.5,9.5A2.5,2.5,0,1,0,15,12,2.5,2.5,0,0,0,12.5,9.5Z" style="opacity:0.9900000095367432;isolation:isolate;fill:url(#Degradado_sin_nombre_10)"/><path id="path2555-7-8-5-1" d="M12.5,9.5A2.5,2.5,0,1,0,15,12,2.5,2.5,0,0,0,12.5,9.5Z" style="fill:none;stroke:#206b00;stroke-linecap:round;stroke-linejoin:round;stroke-width:0.9999998807907104px;opacity:0.5;isolation:isolate"/><path id="path2922-6-6-0-9-7" d="M13.45,11l.48.43-1.61,2.13-1.25-1.08.41-.54.73.63Z" style="fill:#fff;opacity:0.5;isolation:isolate"/><path id="path8655-6-0-9-5-0" d="M14.76,12A2.26,2.26,0,1,1,12.5,9.74,2.26,2.26,0,0,1,14.76,12Z" style="fill:none;stroke-linecap:round;stroke-linejoin:round;stroke-width:0.9999998807907104px;opacity:0.5;isolation:isolate;stroke:url(#Degradado_sin_nombre_9)"/><path id="path2922-6-6-0-9-4-2" d="M13.45,10.72l.48.43-1.61,2.13-1.25-1.07.41-.55.73.63Z" style="fill:#206b00"/></svg>